<svg width="115" height="134" viewBox="0 0 115 134" fill="none" xmlns="http://www.w3.org/2000/svg">
<path opacity="0.4" d="M31.9438 68.148C16.6537 68.148 4.25869 64.5248 4.25869 60.0554C4.25869 55.586 16.6537 51.9629 31.9438 51.9629C47.2339 51.9629 59.6289 55.586 59.6289 60.0554C59.6289 64.5248 47.2339 68.148 31.9438 68.148Z" fill="#D6D8E5"/>
<path d="M50.105 53.6577C50.359 54.0054 50.5666 54.3846 50.7228 54.7859C50.7641 54.8896 50.8045 54.9986 50.8428 55.113C51.4569 56.9484 50.4838 59.1493 50.2056 58.9119C49.9274 58.6745 49.0604 58.234 48.8928 58.853C48.7252 59.472 48.1059 60.1047 48.1059 60.1047C46.9777 61.2394 45.9566 60.0134 45.2862 58.7467C45.0672 58.3287 44.8725 57.8985 44.7031 57.4581C44.5542 57.0691 44.4688 56.8003 44.4688 56.8003L49.1678 52.7966C49.1678 52.7966 49.6221 53.0052 50.105 53.6577Z" fill="#4FC87B"/>
<path d="M42.6987 56.2177C42.9527 56.5654 43.1604 56.9447 43.3166 57.3459C43.3579 57.4497 43.3983 57.5587 43.4365 57.673C44.0506 59.5085 43.0775 61.7094 42.7993 61.472C42.5211 61.2346 41.6542 60.7941 41.4865 61.4131C41.3189 62.0321 40.6997 62.6648 40.6997 62.6648C39.5715 63.7996 38.5503 62.5735 37.88 61.3068C37.661 60.8889 37.4663 60.4586 37.2968 60.0183C37.148 59.6292 37.0625 59.3604 37.0625 59.3604L41.7616 55.3567C41.7616 55.3567 42.2158 55.5652 42.6987 56.2177Z" fill="#4FC87B"/>
<path d="M27.8296 59.7543C27.8032 60.1842 27.721 60.6087 27.5852 61.0174C27.5508 61.1236 27.5123 61.2333 27.4688 61.3458C26.7702 63.151 24.6164 64.2246 24.5537 63.8643C24.4911 63.5039 24.1047 62.6114 23.5806 62.981C23.0565 63.3506 22.176 63.4425 22.176 63.4425C20.5833 63.5962 20.5795 62.0004 20.8719 60.5972C20.97 60.1356 21.0947 59.68 21.2453 59.2328C21.379 58.8382 21.4848 58.5767 21.4848 58.5767L27.6576 58.4932C27.6576 58.4932 27.8742 58.9437 27.8296 59.7543Z" fill="#4FC87B"/>
<path d="M19.853 57.7433C19.8266 58.1731 19.7445 58.5977 19.6086 59.0064C19.5742 59.1126 19.5358 59.2223 19.4922 59.3348C18.7937 61.14 16.6398 62.2135 16.5772 61.8532C16.5145 61.4928 16.1282 60.6003 15.6041 60.9699C15.08 61.3395 14.1995 61.4315 14.1995 61.4315C12.6067 61.5851 12.603 59.9893 12.8953 58.5861C12.9935 58.1245 13.1181 57.669 13.2687 57.2218C13.4024 56.8272 13.5082 56.5657 13.5082 56.5657L19.681 56.4822C19.681 56.4822 19.8976 56.9327 19.853 57.7433Z" fill="#4FC87B"/>
<path opacity="0.2" d="M25.4492 1.35864H25.4535C25.4525 1.35922 25.4514 1.35958 25.4503 1.35971L25.4492 1.35864Z" fill="#111111"/>
<path opacity="0.2" d="M25.5107 1.34854C25.5902 1.33585 25.7475 1.3141 25.9761 1.29688L25.4668 1.35669C25.4741 1.35488 25.4833 1.35307 25.4942 1.35125C25.4997 1.35035 25.5043 1.34944 25.5107 1.34854Z" fill="#111111"/>
<path d="M43.2646 5.70734C43.2646 5.70734 51.2661 -1.09215 54.8059 0.152074C54.8059 0.152074 57.6764 3.2866 51.7686 9.16885L43.2646 5.70734Z" fill="#4FC87B"/>
<path d="M68.2192 38.2792C68.2192 47.1414 61.8597 54.1427 55.8759 54.1427C49.892 54.1427 46.5498 47.1413 46.5498 38.2792C46.5498 29.417 51.4107 22.5792 57.3845 22.2328C66.8478 21.6842 68.2192 29.417 68.2192 38.2792Z" fill="#4FC87B"/>
<path opacity="0.2" d="M50.105 53.6577C50.359 54.0054 50.5666 54.3846 50.7228 54.7859C50.7641 54.8896 50.8045 54.9986 50.8428 55.113C51.4569 56.9484 50.4838 59.1493 50.2056 58.9119C49.9274 58.6745 49.0604 58.234 48.8928 58.853C48.7252 59.472 48.1059 60.1047 48.1059 60.1047C46.9777 61.2394 45.9566 60.0134 45.2862 58.7467C45.0672 58.3287 44.8725 57.8985 44.7031 57.4581C44.5542 57.0691 44.4688 56.8003 44.4688 56.8003L49.1678 52.7966C49.1678 52.7966 49.6221 53.0052 50.105 53.6577Z" fill="#111111"/>
<path opacity="0.2" d="M42.6987 56.2177C42.9527 56.5654 43.1604 56.9447 43.3166 57.3459C43.3579 57.4497 43.3983 57.5587 43.4365 57.673C44.0506 59.5085 43.0775 61.7094 42.7993 61.472C42.5211 61.2346 41.6542 60.7941 41.4865 61.4131C41.3189 62.0321 40.6997 62.6648 40.6997 62.6648C39.5715 63.7996 38.5503 62.5735 37.88 61.3068C37.661 60.8889 37.4663 60.4586 37.2968 60.0183C37.148 59.6292 37.0625 59.3604 37.0625 59.3604L41.7616 55.3567C41.7616 55.3567 42.2158 55.5652 42.6987 56.2177Z" fill="#111111"/>
<path opacity="0.2" d="M27.8296 59.7543C27.8032 60.1842 27.721 60.6087 27.5852 61.0174C27.5508 61.1236 27.5123 61.2333 27.4688 61.3458C26.7702 63.151 24.6164 64.2246 24.5537 63.8643C24.4911 63.5039 24.1047 62.6114 23.5806 62.981C23.0565 63.3506 22.176 63.4425 22.176 63.4425C20.5833 63.5962 20.5795 62.0004 20.8719 60.5972C20.97 60.1356 21.0947 59.68 21.2453 59.2328C21.379 58.8382 21.4848 58.5767 21.4848 58.5767L27.6576 58.4932C27.6576 58.4932 27.8742 58.9437 27.8296 59.7543Z" fill="#111111"/>
<path opacity="0.2" d="M19.853 57.7433C19.8266 58.1731 19.7445 58.5977 19.6086 59.0064C19.5742 59.1126 19.5358 59.2223 19.4922 59.3348C18.7937 61.14 16.6398 62.2135 16.5772 61.8532C16.5145 61.4928 16.1282 60.6003 15.6041 60.9699C15.08 61.3395 14.1995 61.4315 14.1995 61.4315C12.6067 61.5851 12.603 59.9893 12.8953 58.5861C12.9935 58.1245 13.1181 57.669 13.2687 57.2218C13.4024 56.8272 13.5082 56.5657 13.5082 56.5657L19.681 56.4822C19.681 56.4822 19.8976 56.9327 19.853 57.7433Z" fill="#111111"/>
<path d="M62.6397 30.6908C62.6397 47.178 57.0624 60.5435 31.3242 60.5435C14.0291 60.5435 0.648665 56.2462 0.0086409 30.6908C-0.404156 14.2088 14.0291 0.838135 31.3242 0.838135C48.6193 0.838135 62.6397 14.2036 62.6397 30.6908Z" fill="#4FC87B"/>
<path opacity="0.2" d="M48.6501 13.547L46.3643 14.3699C45.1991 12.8073 43.9453 11.3127 42.6092 9.89341C41.1509 8.33797 39.5597 6.91263 37.8538 5.63359C32.0012 1.29604 27.4744 1.18541 25.9795 1.29695L29.4155 0.892822C32.663 1.45159 35.786 2.5805 38.6401 4.22736C40.6369 5.37842 42.4966 6.75229 44.1836 8.32261C47.1753 11.0994 48.6501 13.547 48.6501 13.547Z" fill="#111111"/>
<path opacity="0.2" d="M27.9855 15.1015C27.9855 15.1015 24.9682 5.04384 27.5284 2.30085C27.5284 2.30085 31.5514 0.92936 34.5687 8.70117L27.9855 15.1015Z" fill="#111111"/>
<path opacity="0.2" d="M43.2646 5.70734C43.2646 5.70734 51.2661 -1.09215 54.8059 0.152074C54.8059 0.152074 57.6764 3.2866 51.7686 9.16885L43.2646 5.70734Z" fill="#111111"/>
<path opacity="0.2" d="M68.2192 38.2792C68.2192 47.1414 61.8597 54.1427 55.8759 54.1427C49.892 54.1427 46.5498 47.1413 46.5498 38.2792C46.5498 29.417 51.4107 22.5792 57.3845 22.2328C66.8478 21.6842 68.2192 29.417 68.2192 38.2792Z" fill="#111111"/>
<path d="M55.5076 42.1653C56.6185 42.1653 57.5191 41.019 57.5191 39.6049C57.5191 38.1908 56.6185 37.0444 55.5076 37.0444C54.3967 37.0444 53.4961 38.1908 53.4961 39.6049C53.4961 41.019 54.3967 42.1653 55.5076 42.1653Z" fill="#4FC87B"/>
<path d="M62.6394 39.9711C63.7503 39.9711 64.6509 38.8248 64.6509 37.4107C64.6509 35.9967 63.7503 34.8503 62.6394 34.8503C61.5285 34.8503 60.6279 35.9967 60.6279 37.4107C60.6279 38.8248 61.5285 39.9711 62.6394 39.9711Z" fill="#4FC87B"/>
<path d="M44.5748 6.67182C44.5761 7.24533 44.4424 7.8111 44.1843 8.32327C43.8437 9.00382 43.2911 9.55518 42.6099 9.89424C41.1516 8.33863 39.5604 6.91314 37.8545 5.63396C38.0065 5.11156 38.2754 4.63061 38.6408 4.22759C38.9559 3.8763 39.3412 3.59507 39.7718 3.40211C40.2024 3.20915 40.6687 3.10876 41.1406 3.10742C43.0369 3.10742 44.5748 4.70308 44.5748 6.67182Z" fill="#FAD46F"/>
<path opacity="0.4" d="M26.204 119.802C22.9187 119.802 20.2556 118.295 20.2556 116.437C20.2556 114.578 22.9187 113.071 26.204 113.071C29.4892 113.071 32.1523 114.578 32.1523 116.437C32.1523 118.295 29.4892 119.802 26.204 119.802Z" fill="#D6D8E5"/>
<path d="M25.3564 119.176C22.0712 119.176 19.408 117.67 19.408 115.811C19.408 113.953 22.0712 112.446 25.3564 112.446C28.6415 112.446 31.3047 113.953 31.3047 115.811C31.3047 117.67 28.6415 119.176 25.3564 119.176Z" fill="#D6D8E5"/>
<path d="M33.3203 104.311L31.2391 116.044H19.4243L17.3927 104.396L33.3203 104.311Z" fill="#D6D8E5"/>
<path d="M25.3582 108.672C20.9565 108.672 17.3882 106.654 17.3882 104.165C17.3882 101.676 20.9565 99.6587 25.3582 99.6587C29.7598 99.6587 33.3281 101.676 33.3281 104.165C33.3281 106.654 29.7598 108.672 25.3582 108.672Z" fill="#E4E6EF"/>
<path d="M25.3571 107.679C27.3092 107.679 29.13 107.258 30.4843 106.493C31.6452 105.835 32.3125 104.987 32.3125 104.166C32.3125 103.344 31.6452 102.496 30.4843 101.84C29.1324 101.075 27.3092 100.652 25.3571 100.652C23.4049 100.652 21.5817 101.075 20.2273 101.84C19.0664 102.496 18.4016 103.344 18.4016 104.166C18.4016 104.987 19.0664 105.835 20.2273 106.493C21.5817 107.258 23.4024 107.679 25.3571 107.679Z" fill="#28221C"/>
<path d="M21.926 100.616C21.926 100.616 22.0823 91.1026 25.3566 87.7405C29.3528 91.1852 28.7203 100.63 28.7203 100.63L25.307 106.704C24.8605 106.718 21.926 100.616 21.926 100.616Z" fill="#4FC87B"/>
<path d="M25.3073 106.697C25.3073 106.697 27.1255 95.2982 33.8825 91.0154C33.8825 91.0154 35.0881 106.629 25.3073 106.697Z" fill="#6DE699"/>
<path d="M25.3564 106.697C25.3564 106.697 23.7168 95.5219 17.131 91.4893C17.131 91.4893 15.5757 106.629 25.3564 106.697Z" fill="#6DE699"/>
<path opacity="0.4" d="M87.3149 133.74C72.0248 133.74 59.6298 130.117 59.6298 125.648C59.6298 121.178 72.0248 117.555 87.3149 117.555C102.605 117.555 115 121.178 115 125.648C115 130.117 102.605 133.74 87.3149 133.74Z" fill="#D6D8E5"/>
<path d="M67.2619 124.899C69.811 124.899 71.8774 122.706 71.8774 120C71.8774 117.294 69.811 115.101 67.2619 115.101C64.7129 115.101 62.6465 117.294 62.6465 120C62.6465 122.706 64.7129 124.899 67.2619 124.899Z" fill="#FBD56F"/>
<path opacity="0.1" d="M67.2619 124.899C69.811 124.899 71.8774 122.706 71.8774 120C71.8774 117.294 69.811 115.101 67.2619 115.101C64.7129 115.101 62.6465 117.294 62.6465 120C62.6465 122.706 64.7129 124.899 67.2619 124.899Z" fill="#111111"/>
<path d="M68.0598 124.899C70.6088 124.899 72.6752 122.755 72.6752 120.109C72.6752 117.464 70.6088 115.319 68.0598 115.319C65.5107 115.319 63.4443 117.464 63.4443 120.109C63.4443 122.755 65.5107 124.899 68.0598 124.899Z" fill="#FBD56F"/>
<path d="M69.9282 124.449L69.4481 124.182C69.4481 124.182 69.2236 125.12 69.297 125.788C69.3042 125.855 69.3321 125.919 69.3768 125.971C69.4215 126.022 69.4809 126.059 69.547 126.075C70.6514 126.35 75.9153 127.519 79.5351 125.872C79.5876 125.848 79.6329 125.811 79.6667 125.764C79.7004 125.717 79.7214 125.662 79.7275 125.605C79.7719 125.194 79.6147 124.347 79.552 124.182C79.4169 123.827 69.9282 124.449 69.9282 124.449Z" fill="#FBD56F"/>
<path opacity="0.1" d="M69.9282 124.449L69.4481 124.182C69.4481 124.182 69.2236 125.12 69.297 125.788C69.3042 125.855 69.3321 125.919 69.3768 125.971C69.4215 126.022 69.4809 126.059 69.547 126.075C70.6514 126.35 75.9153 127.519 79.5351 125.872C79.5876 125.848 79.6329 125.811 79.6667 125.764C79.7004 125.717 79.7214 125.662 79.7275 125.605C79.7719 125.194 79.6147 124.347 79.552 124.182C79.4169 123.827 69.9282 124.449 69.9282 124.449Z" fill="#111111"/>
<path d="M74.4992 125.322C77.2893 125.322 79.5511 124.812 79.5511 124.183C79.5511 123.553 77.2893 123.043 74.4992 123.043C71.7091 123.043 69.4473 123.553 69.4473 124.183C69.4473 124.812 71.7091 125.322 74.4992 125.322Z" fill="#FBD56F"/>
<path d="M71.8579 122.77L71.3778 122.502C71.3778 122.502 71.1533 123.44 71.2267 124.108C71.2339 124.175 71.2617 124.239 71.3064 124.291C71.3512 124.342 71.4106 124.379 71.4767 124.395C72.5811 124.67 77.845 125.839 81.4648 124.192C81.5173 124.168 81.5626 124.131 81.5963 124.084C81.6301 124.037 81.651 123.982 81.6572 123.925C81.7016 123.514 81.5444 122.667 81.4816 122.502C81.3466 122.147 71.8579 122.77 71.8579 122.77Z" fill="#FBD56F"/>
<path opacity="0.1" d="M71.8579 122.77L71.3778 122.502C71.3778 122.502 71.1533 123.44 71.2267 124.108C71.2339 124.175 71.2617 124.239 71.3064 124.291C71.3512 124.342 71.4106 124.379 71.4767 124.395C72.5811 124.67 77.845 125.839 81.4648 124.192C81.5173 124.168 81.5626 124.131 81.5963 124.084C81.6301 124.037 81.651 123.982 81.6572 123.925C81.7016 123.514 81.5444 122.667 81.4816 122.502C81.3466 122.147 71.8579 122.77 71.8579 122.77Z" fill="#111111"/>
<path d="M76.4299 123.642C79.22 123.642 81.4818 123.132 81.4818 122.502C81.4818 121.873 79.22 121.363 76.4299 121.363C73.6398 121.363 71.3779 121.873 71.3779 122.502C71.3779 123.132 73.6398 123.642 76.4299 123.642Z" fill="#FBD56F"/>
<path d="M73.5649 120.561L73.0848 120.293C73.0848 120.293 72.8603 121.231 72.9337 121.899C72.9409 121.967 72.9688 122.031 73.0135 122.082C73.0582 122.134 73.1176 122.17 73.1837 122.187C74.2881 122.461 79.552 123.63 83.1718 121.983C83.2243 121.959 83.2696 121.922 83.3034 121.875C83.3371 121.829 83.3581 121.774 83.3642 121.716C83.4086 121.306 83.2514 120.458 83.1887 120.293C83.0537 119.938 73.5649 120.561 73.5649 120.561Z" fill="#FBD56F"/>
<path opacity="0.1" d="M73.5649 120.561L73.0848 120.293C73.0848 120.293 72.8603 121.231 72.9337 121.899C72.9409 121.967 72.9688 122.031 73.0135 122.082C73.0582 122.134 73.1176 122.17 73.1837 122.187C74.2881 122.461 79.552 123.63 83.1718 121.983C83.2243 121.959 83.2696 121.922 83.3034 121.875C83.3371 121.829 83.3581 121.774 83.3642 121.716C83.4086 121.306 83.2514 120.458 83.1887 120.293C83.0537 119.938 73.5649 120.561 73.5649 120.561Z" fill="#111111"/>
<path d="M78.1369 121.434C80.927 121.434 83.1888 120.924 83.1888 120.294C83.1888 119.665 80.927 119.155 78.1369 119.155C75.3468 119.155 73.085 119.665 73.085 120.294C73.085 120.924 75.3468 121.434 78.1369 121.434Z" fill="#FBD56F"/>
<path d="M71.6763 118.262L71.1962 117.995C71.1962 117.995 70.9716 118.933 71.045 119.601C71.0522 119.668 71.0801 119.732 71.1248 119.784C71.1695 119.835 71.2289 119.872 71.295 119.888C72.3995 120.163 77.6634 121.332 81.2831 119.685C81.3356 119.661 81.381 119.624 81.4147 119.577C81.4484 119.53 81.4694 119.475 81.4755 119.418C81.5199 119.007 81.3628 118.16 81.3 117.995C81.165 117.64 71.6763 118.262 71.6763 118.262Z" fill="#FBD56F"/>
<path opacity="0.1" d="M71.6763 118.262L71.1962 117.995C71.1962 117.995 70.9716 118.933 71.045 119.601C71.0522 119.668 71.0801 119.732 71.1248 119.784C71.1695 119.835 71.2289 119.872 71.295 119.888C72.3995 120.163 77.6634 121.332 81.2831 119.685C81.3356 119.661 81.381 119.624 81.4147 119.577C81.4484 119.53 81.4694 119.475 81.4755 119.418C81.5199 119.007 81.3628 118.16 81.3 117.995C81.165 117.64 71.6763 118.262 71.6763 118.262Z" fill="#111111"/>
<path d="M76.2463 119.135C79.0364 119.135 81.2982 118.625 81.2982 117.996C81.2982 117.366 79.0364 116.856 76.2463 116.856C73.4562 116.856 71.1943 117.366 71.1943 117.996C71.1943 118.625 73.4562 119.135 76.2463 119.135Z" fill="#FBD56F"/>
<path d="M75.9263 116.418L75.4462 116.151C75.4462 116.151 75.2216 117.088 75.295 117.756C75.3023 117.824 75.3301 117.888 75.3748 117.939C75.4195 117.991 75.4789 118.027 75.545 118.044C76.6494 118.318 81.9134 119.487 85.5331 117.841C85.5856 117.817 85.631 117.78 85.6647 117.733C85.6984 117.686 85.7194 117.631 85.7255 117.574C85.7699 117.163 85.6128 116.316 85.55 116.151C85.415 115.796 75.9263 116.418 75.9263 116.418Z" fill="#FBD56F"/>
<path opacity="0.1" d="M75.9263 116.418L75.4462 116.151C75.4462 116.151 75.2216 117.088 75.295 117.756C75.3023 117.824 75.3301 117.888 75.3748 117.939C75.4195 117.991 75.4789 118.027 75.545 118.044C76.6494 118.318 81.9134 119.487 85.5331 117.841C85.5856 117.817 85.631 117.78 85.6647 117.733C85.6984 117.686 85.7194 117.631 85.7255 117.574C85.7699 117.163 85.6128 116.316 85.55 116.151C85.415 115.796 75.9263 116.418 75.9263 116.418Z" fill="#111111"/>
<path d="M80.4972 117.29C83.2873 117.29 85.5492 116.78 85.5492 116.151C85.5492 115.522 83.2873 115.012 80.4972 115.012C77.7071 115.012 75.4453 115.522 75.4453 116.151C75.4453 116.78 77.7071 117.29 80.4972 117.29Z" fill="#FBD56F"/>
<path d="M73.0532 115.178L72.5731 114.911C72.5731 114.911 72.3486 115.848 72.422 116.516C72.4292 116.584 72.4571 116.648 72.5018 116.7C72.5465 116.751 72.6059 116.787 72.672 116.804C73.7764 117.078 79.0403 118.248 82.6601 116.601C82.7126 116.577 82.7579 116.54 82.7917 116.493C82.8254 116.446 82.8464 116.391 82.8525 116.334C82.8969 115.923 82.7397 115.076 82.677 114.911C82.5419 114.556 73.0532 115.178 73.0532 115.178Z" fill="#FBD56F"/>
<path opacity="0.1" d="M73.0532 115.178L72.5731 114.911C72.5731 114.911 72.3486 115.848 72.422 116.516C72.4292 116.584 72.4571 116.648 72.5018 116.7C72.5465 116.751 72.6059 116.787 72.672 116.804C73.7764 117.078 79.0403 118.248 82.6601 116.601C82.7126 116.577 82.7579 116.54 82.7917 116.493C82.8254 116.446 82.8464 116.391 82.8525 116.334C82.8969 115.923 82.7397 115.076 82.677 114.911C82.5419 114.556 73.0532 115.178 73.0532 115.178Z" fill="#111111"/>
<path d="M77.6242 116.051C80.4143 116.051 82.6761 115.54 82.6761 114.911C82.6761 114.282 80.4143 113.772 77.6242 113.772C74.8341 113.772 72.5723 114.282 72.5723 114.911C72.5723 115.54 74.8341 116.051 77.6242 116.051Z" fill="#FBD56F"/>
<path d="M74.9722 112.784L74.4921 112.516C74.4921 112.516 74.2675 113.454 74.3409 114.122C74.3481 114.19 74.376 114.254 74.4207 114.305C74.4654 114.357 74.5248 114.393 74.5909 114.41C75.6954 114.684 80.9593 115.853 84.579 114.206C84.6315 114.183 84.6769 114.145 84.7106 114.098C84.7443 114.052 84.7653 113.997 84.7714 113.939C84.8158 113.529 84.6586 112.682 84.5959 112.517C84.4609 112.161 74.9722 112.784 74.9722 112.784Z" fill="#FBD56F"/>
<path opacity="0.1" d="M74.9722 112.784L74.4921 112.516C74.4921 112.516 74.2675 113.454 74.3409 114.122C74.3481 114.19 74.376 114.254 74.4207 114.305C74.4654 114.357 74.5248 114.393 74.5909 114.41C75.6954 114.684 80.9593 115.853 84.579 114.206C84.6315 114.183 84.6769 114.145 84.7106 114.098C84.7443 114.052 84.7653 113.997 84.7714 113.939C84.8158 113.529 84.6586 112.682 84.5959 112.517C84.4609 112.161 74.9722 112.784 74.9722 112.784Z" fill="#111111"/>
<path d="M79.5451 113.656C82.3352 113.656 84.597 113.146 84.597 112.517C84.597 111.888 82.3352 111.378 79.5451 111.378C76.755 111.378 74.4932 111.888 74.4932 112.517C74.4932 113.146 76.755 113.656 79.5451 113.656Z" fill="#FBD56F"/>
<path d="M75.9175 109.942L75.4374 109.675C75.4374 109.675 75.2128 110.612 75.2862 111.281C75.2935 111.348 75.3213 111.412 75.366 111.464C75.4107 111.515 75.4701 111.551 75.5362 111.568C76.6407 111.842 81.9046 113.011 85.5244 111.365C85.5768 111.341 85.6222 111.304 85.6559 111.257C85.6896 111.21 85.7106 111.155 85.7167 111.098C85.7611 110.687 85.604 109.84 85.5412 109.675C85.4062 109.32 75.9175 109.942 75.9175 109.942Z" fill="#FBD56F"/>
<path opacity="0.1" d="M75.9175 109.942L75.4374 109.675C75.4374 109.675 75.2128 110.612 75.2862 111.281C75.2935 111.348 75.3213 111.412 75.366 111.464C75.4107 111.515 75.4701 111.551 75.5362 111.568C76.6407 111.842 81.9046 113.011 85.5244 111.365C85.5768 111.341 85.6222 111.304 85.6559 111.257C85.6896 111.21 85.7106 111.155 85.7167 111.098C85.7611 110.687 85.604 109.84 85.5412 109.675C85.4062 109.32 75.9175 109.942 75.9175 109.942Z" fill="#111111"/>
<path d="M80.4904 110.816C83.2805 110.816 85.5423 110.305 85.5423 109.676C85.5423 109.047 83.2805 108.536 80.4904 108.536C77.7003 108.536 75.4385 109.047 75.4385 109.676C75.4385 110.305 77.7003 110.816 80.4904 110.816Z" fill="#FBD56F"/>
<path d="M84.4448 125.109L83.9647 124.841C83.9647 124.841 83.7402 125.779 83.8136 126.447C83.8208 126.515 83.8487 126.579 83.8934 126.63C83.9381 126.682 83.9975 126.718 84.0636 126.735C85.168 127.009 90.4319 128.179 94.0517 126.532C94.1042 126.508 94.1495 126.47 94.1833 126.423C94.217 126.377 94.238 126.322 94.2441 126.264C94.2885 125.854 94.1313 125.006 94.0686 124.841C93.9335 124.486 84.4448 125.109 84.4448 125.109Z" fill="#FBD56F"/>
<path opacity="0.1" d="M84.4448 125.109L83.9647 124.841C83.9647 124.841 83.7402 125.779 83.8136 126.447C83.8208 126.515 83.8487 126.579 83.8934 126.63C83.9381 126.682 83.9975 126.718 84.0636 126.735C85.168 127.009 90.4319 128.179 94.0517 126.532C94.1042 126.508 94.1495 126.47 94.1833 126.423C94.217 126.377 94.238 126.322 94.2441 126.264C94.2885 125.854 94.1313 125.006 94.0686 124.841C93.9335 124.486 84.4448 125.109 84.4448 125.109Z" fill="#111111"/>
<path d="M89.0187 125.981C91.8088 125.981 94.0707 125.471 94.0707 124.842C94.0707 124.212 91.8088 123.702 89.0187 123.702C86.2286 123.702 83.9668 124.212 83.9668 124.842C83.9668 125.471 86.2286 125.981 89.0187 125.981Z" fill="#FBD56F"/>
<path d="M86.1518 122.9L85.6718 122.633C85.6718 122.633 85.4472 123.57 85.5206 124.238C85.5278 124.306 85.5557 124.37 85.6004 124.421C85.6451 124.473 85.7045 124.509 85.7706 124.526C86.875 124.8 92.139 125.969 95.7587 124.323C95.8112 124.299 95.8566 124.262 95.8903 124.215C95.924 124.168 95.945 124.113 95.9511 124.056C95.9955 123.645 95.8383 122.798 95.7756 122.633C95.6406 122.277 86.1518 122.9 86.1518 122.9Z" fill="#FBD56F"/>
<path opacity="0.1" d="M86.1518 122.9L85.6718 122.633C85.6718 122.633 85.4472 123.57 85.5206 124.238C85.5278 124.306 85.5557 124.37 85.6004 124.421C85.6451 124.473 85.7045 124.509 85.7706 124.526C86.875 124.8 92.139 125.969 95.7587 124.323C95.8112 124.299 95.8566 124.262 95.8903 124.215C95.924 124.168 95.945 124.113 95.9511 124.056C95.9955 123.645 95.8383 122.798 95.7756 122.633C95.6406 122.277 86.1518 122.9 86.1518 122.9Z" fill="#111111"/>
<path d="M90.7258 123.773C93.5159 123.773 95.7777 123.263 95.7777 122.634C95.7777 122.004 93.5159 121.494 90.7258 121.494C87.9357 121.494 85.6738 122.004 85.6738 122.634C85.6738 123.263 87.9357 123.773 90.7258 123.773Z" fill="#FBD56F"/>
<path d="M84.2622 120.601L83.7821 120.334C83.7821 120.334 83.5576 121.271 83.631 121.94C83.6382 122.007 83.666 122.071 83.7107 122.123C83.7555 122.174 83.8149 122.21 83.8809 122.227C84.9854 122.501 90.2493 123.671 93.8691 122.024C93.9216 122 93.9669 121.963 94.0006 121.916C94.0344 121.869 94.0553 121.814 94.0615 121.757C94.1059 121.346 93.9487 120.499 93.8859 120.334C93.7509 119.979 84.2622 120.601 84.2622 120.601Z" fill="#FBD56F"/>
<path opacity="0.1" d="M84.2622 120.601L83.7821 120.334C83.7821 120.334 83.5576 121.271 83.631 121.94C83.6382 122.007 83.666 122.071 83.7107 122.123C83.7555 122.174 83.8149 122.21 83.8809 122.227C84.9854 122.501 90.2493 123.671 93.8691 122.024C93.9216 122 93.9669 121.963 94.0006 121.916C94.0344 121.869 94.0553 121.814 94.0615 121.757C94.1059 121.346 93.9487 120.499 93.8859 120.334C93.7509 119.979 84.2622 120.601 84.2622 120.601Z" fill="#111111"/>
<path d="M88.8351 121.474C91.6252 121.474 93.8871 120.964 93.8871 120.334C93.8871 119.705 91.6252 119.195 88.8351 119.195C86.045 119.195 83.7832 119.705 83.7832 120.334C83.7832 120.964 86.045 121.474 88.8351 121.474Z" fill="#FBD56F"/>
<path d="M88.5132 118.757L88.0331 118.489C88.0331 118.489 87.8085 119.427 87.8819 120.095C87.8892 120.163 87.917 120.227 87.9617 120.278C88.0064 120.329 88.0658 120.366 88.1319 120.382C89.2364 120.657 94.5003 121.826 98.1201 120.179C98.1725 120.155 98.2179 120.118 98.2516 120.071C98.2854 120.024 98.3063 119.97 98.3124 119.912C98.3568 119.502 98.1997 118.654 98.1369 118.489C98.0019 118.134 88.5132 118.757 88.5132 118.757Z" fill="#FBD56F"/>
<path opacity="0.1" d="M88.5132 118.757L88.0331 118.489C88.0331 118.489 87.8085 119.427 87.8819 120.095C87.8892 120.163 87.917 120.227 87.9617 120.278C88.0064 120.329 88.0658 120.366 88.1319 120.382C89.2364 120.657 94.5003 121.826 98.1201 120.179C98.1725 120.155 98.2179 120.118 98.2516 120.071C98.2854 120.024 98.3063 119.97 98.3124 119.912C98.3568 119.502 98.1997 118.654 98.1369 118.489C98.0019 118.134 88.5132 118.757 88.5132 118.757Z" fill="#111111"/>
<path d="M93.0842 119.629C95.8743 119.629 98.1361 119.119 98.1361 118.49C98.1361 117.86 95.8743 117.35 93.0842 117.35C90.2941 117.35 88.0322 117.86 88.0322 118.49C88.0322 119.119 90.2941 119.629 93.0842 119.629Z" fill="#FBD56F"/>
<path d="M85.6401 117.517L85.16 117.249C85.16 117.249 84.9355 118.187 85.0089 118.855C85.0161 118.923 85.044 118.987 85.0887 119.038C85.1334 119.09 85.1928 119.126 85.2589 119.143C86.3633 119.417 91.6272 120.586 95.247 118.939C95.2995 118.915 95.3448 118.878 95.3786 118.831C95.4123 118.785 95.4333 118.73 95.4394 118.672C95.4838 118.262 95.3266 117.414 95.2639 117.249C95.1289 116.894 85.6401 117.517 85.6401 117.517Z" fill="#FBD56F"/>
<path opacity="0.1" d="M85.6401 117.517L85.16 117.249C85.16 117.249 84.9355 118.187 85.0089 118.855C85.0161 118.923 85.044 118.987 85.0887 119.038C85.1334 119.09 85.1928 119.126 85.2589 119.143C86.3633 119.417 91.6272 120.586 95.247 118.939C95.2995 118.915 95.3448 118.878 95.3786 118.831C95.4123 118.785 95.4333 118.73 95.4394 118.672C95.4838 118.262 95.3266 117.414 95.2639 117.249C95.1289 116.894 85.6401 117.517 85.6401 117.517Z" fill="#111111"/>
<path d="M90.2131 118.39C93.0032 118.39 95.265 117.88 95.265 117.251C95.265 116.621 93.0032 116.111 90.2131 116.111C87.423 116.111 85.1611 116.621 85.1611 117.251C85.1611 117.88 87.423 118.39 90.2131 118.39Z" fill="#FBD56F"/>
<path d="M87.561 115.124L87.0809 114.856C87.0809 114.856 86.8564 115.794 86.9298 116.462C86.937 116.529 86.9649 116.593 87.0096 116.645C87.0543 116.696 87.1137 116.733 87.1798 116.749C88.2842 117.024 93.5481 118.193 97.1679 116.546C97.2204 116.522 97.2657 116.485 97.2995 116.438C97.3332 116.391 97.3542 116.336 97.3603 116.279C97.4047 115.868 97.2475 115.021 97.1848 114.856C97.0498 114.501 87.561 115.124 87.561 115.124Z" fill="#FBD56F"/>
<path opacity="0.1" d="M87.561 115.124L87.0809 114.856C87.0809 114.856 86.8564 115.794 86.9298 116.462C86.937 116.529 86.9649 116.593 87.0096 116.645C87.0543 116.696 87.1137 116.733 87.1798 116.749C88.2842 117.024 93.5481 118.193 97.1679 116.546C97.2204 116.522 97.2657 116.485 97.2995 116.438C97.3332 116.391 97.3542 116.336 97.3603 116.279C97.4047 115.868 97.2475 115.021 97.1848 114.856C97.0498 114.501 87.561 115.124 87.561 115.124Z" fill="#111111"/>
<path d="M92.1301 115.996C94.9202 115.996 97.182 115.486 97.182 114.857C97.182 114.227 94.9202 113.717 92.1301 113.717C89.34 113.717 87.0781 114.227 87.0781 114.857C87.0781 115.486 89.34 115.996 92.1301 115.996Z" fill="#FBD56F"/>
<path d="M88.5044 112.282L88.0243 112.015C88.0243 112.015 87.7997 112.952 87.8731 113.62C87.8804 113.688 87.9082 113.752 87.9529 113.803C87.9977 113.855 88.0571 113.891 88.1231 113.908C89.2276 114.182 94.4915 115.351 98.1113 113.705C98.1638 113.681 98.2091 113.643 98.2428 113.597C98.2766 113.55 98.2975 113.495 98.3037 113.438C98.3481 113.027 98.1909 112.18 98.1281 112.015C97.9931 111.659 88.5044 112.282 88.5044 112.282Z" fill="#FBD56F"/>
<path opacity="0.1" d="M88.5044 112.282L88.0243 112.015C88.0243 112.015 87.7997 112.952 87.8731 113.62C87.8804 113.688 87.9082 113.752 87.9529 113.803C87.9977 113.855 88.0571 113.891 88.1231 113.908C89.2276 114.182 94.4915 115.351 98.1113 113.705C98.1638 113.681 98.2091 113.643 98.2428 113.597C98.2766 113.55 98.2975 113.495 98.3037 113.438C98.3481 113.027 98.1909 112.18 98.1281 112.015C97.9931 111.659 88.5044 112.282 88.5044 112.282Z" fill="#111111"/>
<path d="M93.0773 113.154C95.8674 113.154 98.1292 112.644 98.1292 112.015C98.1292 111.386 95.8674 110.875 93.0773 110.875C90.2872 110.875 88.0254 111.386 88.0254 112.015C88.0254 112.644 90.2872 113.154 93.0773 113.154Z" fill="#FBD56F"/>
<path opacity="0.1" d="M100.1 111.657C100.1 111.657 97.7898 112.747 97.5932 113.223C97.3966 113.698 100.1 111.657 100.1 111.657Z" fill="#111111"/>
<path opacity="0.1" d="M99.9524 113.058C99.9524 113.058 97.8676 113.943 97.5829 114.165C97.2982 114.386 99.9524 113.058 99.9524 113.058Z" fill="#111111"/>
<path opacity="0.1" d="M98.993 114.95C98.993 114.95 98.0697 115.639 97.5607 115.098C97.0516 114.557 98.993 114.95 98.993 114.95Z" fill="#111111"/>
<path d="M77.7463 131.888C80.2954 131.888 82.3618 129.695 82.3618 126.989C82.3618 124.284 80.2954 122.09 77.7463 122.09C75.1973 122.09 73.1309 124.284 73.1309 126.989C73.1309 129.695 75.1973 131.888 77.7463 131.888Z" fill="#FBD56F"/>
<path opacity="0.1" d="M77.7463 131.888C80.2954 131.888 82.3618 129.695 82.3618 126.989C82.3618 124.284 80.2954 122.09 77.7463 122.09C75.1973 122.09 73.1309 124.284 73.1309 126.989C73.1309 129.695 75.1973 131.888 77.7463 131.888Z" fill="#111111"/>
<path d="M78.5442 131.888C81.0932 131.888 83.1596 129.744 83.1596 127.098C83.1596 124.453 81.0932 122.308 78.5442 122.308C75.9951 122.308 73.9287 124.453 73.9287 127.098C73.9287 129.744 75.9951 131.888 78.5442 131.888Z" fill="#FBD56F"/>
<path d="M106.835 74.4644C106.972 75.6425 108.408 80.7251 108.1 82.4666C107.793 84.2081 102.888 87.1205 102.888 87.1205L102.208 84.1396L104.924 81.5432L104.191 76.6076L106.835 74.4644Z" fill="#FFCEA9"/>
<path d="M103.04 69.4553C103.74 69.1589 105.041 69.0928 105.771 70.2637C106.502 71.4345 107.242 75.4467 107.31 76.1423C107.31 76.1423 106.297 77.5116 104.778 77.2838L103.04 69.4553Z" fill="#EDEDED"/>
<path d="M97.441 126.123C96.3736 126.411 95.2334 126.276 94.2672 125.746C93.5043 125.768 89.355 124.031 88.7898 125.489C88.2895 126.77 90.0928 127.953 91.0532 128.183C93.1492 128.673 94.6998 129.705 95.5427 129.879C96.168 130.008 96.9808 130.094 97.481 129.612C98.0788 129.033 98.0288 126.89 97.441 126.123Z" fill="#111111"/>
<path d="M95.5424 129.526C94.6995 129.355 93.1488 128.331 91.0529 127.834C90.2475 127.642 88.8619 126.78 88.7218 125.751C88.5368 126.93 90.1575 127.976 91.0529 128.186C93.1488 128.676 94.6995 129.708 95.5424 129.881C96.1677 130.011 96.9805 130.097 97.4807 129.614C97.6098 129.474 97.7039 129.306 97.7559 129.125C97.0255 129.717 96.1677 129.656 95.5424 129.526Z" fill="#111111"/>
<path d="M104.171 123.167C103.104 123.457 101.963 123.322 100.997 122.792C100.232 122.814 96.0848 121.077 95.5195 122.547C95.0193 123.828 96.8226 125.012 97.783 125.242C99.8789 125.732 101.43 126.763 102.27 126.937C102.898 127.067 103.711 127.153 104.208 126.668C104.809 126.075 104.756 123.931 104.171 123.167Z" fill="#111111"/>
<path d="M102.272 126.567C101.432 126.393 99.8808 125.371 97.7849 124.874C96.9795 124.683 95.5939 123.818 95.4539 122.792C95.2663 123.97 96.8895 125.016 97.7849 125.227C99.8808 125.717 101.432 126.748 102.272 126.922C102.9 127.052 103.713 127.138 104.21 126.653C104.341 126.513 104.436 126.345 104.485 126.163C103.758 126.755 102.9 126.697 102.272 126.567Z" fill="#111111"/>
<path d="M104.253 112.127C104.074 110.618 103.753 109.128 103.295 107.676C103.295 107.676 103.58 103.833 103.723 100.193C103.885 96.0611 105.349 92.4237 104.196 89.1267L91.1749 91.9632C91.1749 91.9632 91.9627 108.438 92.1378 110.432C92.2319 111.984 92.4257 113.528 92.7181 115.056C93.3133 118.255 94.2787 125.863 94.2787 125.863C95.6568 126.647 97.4626 126.214 97.4626 126.214C97.4626 126.214 97.3626 116.592 97.275 114.287C97.1675 111.473 97.08 111.688 97.08 111.688L97.5101 104.681L97.7903 101.193C97.7903 101.193 98.1504 103.752 98.3855 106.038C98.5906 108.031 99.0808 109.834 99.6361 113.543C100.111 116.761 100.887 123.228 100.887 123.228C102.262 124.012 104.138 123.363 104.138 123.363C104.138 123.363 104.626 114.919 104.253 112.127Z" fill="#4FC87B"/>
<path d="M102.352 69.5244C101.351 69.5734 100.621 69.8232 100.496 69.5244C100.39 69.023 100.315 68.5159 100.271 68.0057C100.386 67.724 100.483 67.4228 100.483 67.4228C101.734 66.6708 102.122 65.353 102.287 63.8196C102.564 61.1963 101.119 58.8987 98.44 58.6244C95.9214 58.3794 94.068 60.094 93.5753 62.4822C93.3077 63.6555 92.7775 65.8772 93.4953 67.8098C93.8955 68.89 94.4107 69.7473 94.9284 69.9138C95.4266 69.8998 95.9235 69.8572 96.4166 69.7865C96.4166 69.7865 96.5491 70.5213 96.6417 70.9818C96.7342 71.4423 96.6967 71.697 95.7463 72.2727C94.7959 72.8483 97.1844 74.024 98.7476 73.9089C100.311 73.7938 102.062 72.8703 102.544 71.8807C103.077 70.7907 103.032 69.4925 102.352 69.5244Z" fill="#FFCEA9"/>
<path d="M100.917 69.6681C101.193 70.3393 100.495 71.1599 98.6314 71.733C96.7681 72.3062 96.603 71.5689 96.603 71.5689C96.603 71.5689 93.8718 72.7936 92.9839 73.3937C91.8659 74.1604 91.3707 76.3747 91.2181 80.1126C91.0455 84.4383 91.0305 90.8558 91.1756 91.9629C91.1756 91.9629 93.264 94.0009 95.9277 93.7853C98.5914 93.5698 103.098 91.2551 104.181 89.4645C104.151 85.6728 103.699 85.0555 104.326 82.8706C105.762 77.8689 106.517 75.8211 105.827 72.4973C105.252 69.7563 104.447 69.4159 103.341 69.4428C102.53 69.476 101.721 69.5512 100.917 69.6681Z" fill="#F4F4F4"/>
<path d="M87.017 83.689C89.2105 84.2303 89.7257 82.8758 90.0183 81.754C90.7161 79.0376 91.0913 76.5857 91.6115 75.045C92.2243 73.2276 92.8621 72.9361 93.7675 72.5834C94.8279 72.167 95.7384 73.0439 95.3857 75.3561C94.968 78.0945 94.4203 80.01 93.3848 83.2554C93.1122 84.1005 92.5019 85.6044 91.584 86.3295C90.4535 87.2259 88.7477 87.1868 86.1691 86.5597C85.0686 86.2903 83.8631 85.6461 81.7822 84.6957C81.2244 84.4508 80.7817 84.272 79.7187 83.7821C78.6558 83.2922 77.5303 82.4765 76.9675 81.6805C76.4048 80.8844 76.3322 80.5097 76.4473 80.3284C76.5899 80.1006 76.845 80.1496 77.1451 80.4852C77.5781 81.0519 78.1129 81.5366 78.7233 81.9156C78.7233 81.9156 78.0305 81.2151 77.6553 80.7595C77.3186 80.3557 77.0393 79.9091 76.825 79.4319C76.6274 78.9665 77.0351 78.337 77.3452 78.6677C77.6553 78.9984 77.8029 79.3364 78.3706 80.0026C78.6705 80.357 79.0122 80.6752 79.3886 80.9506C79.0367 80.4858 78.7231 79.9944 78.4507 79.4809C78.0905 78.7608 78.0955 78.3909 78.1105 78.1484C78.1255 77.9059 78.4757 77.6169 78.8033 78.0749C79.101 78.4889 79.3036 79.1355 79.9814 79.8385C80.4816 80.348 80.9093 80.6419 80.9218 80.4999C80.9343 80.3578 80.6191 80.0786 80.4391 79.4858C80.259 78.8931 80.4391 78.2611 80.7742 78.1974C81.1094 78.1337 81.0443 78.1484 81.3144 78.702C81.5846 79.2556 81.9948 79.6671 82.3149 80.4778C82.5925 81.1906 82.7176 81.4796 83.2178 81.9989C83.7405 82.5525 84.9311 83.1746 87.017 83.689Z" fill="#FFCEA9"/>
<path d="M94.5772 72.211C93.1116 72.0004 92.0761 72.647 91.4309 74.8196C90.7856 76.9922 90.3304 78.7778 90.3304 78.7778C90.9105 79.5965 91.7883 80.167 92.7839 80.3724C94.5347 80.7888 95.1674 79.9683 95.1674 79.9683C95.1674 79.9683 95.6677 77.6903 95.9578 76.1398C96.2479 74.5894 96.3905 72.4804 94.5772 72.211Z" fill="#EDEDED"/>
<path d="M93.6617 62.1459C93.6617 62.1459 91.3457 58.6995 96.3604 57.9965C99.977 57.492 102.303 59.7675 102.571 62.2365C102.821 64.5953 101.343 67.0447 100.272 68.0171C99.7494 68.2008 98.6239 68.3062 97.1457 67.6473C97.0866 67.0048 97.064 66.3596 97.0782 65.7147C97.0782 65.7147 98.8415 62.0822 93.6617 62.1459Z" fill="#111111"/>
</svg>
