<svg width="116" height="134" viewBox="0 0 116 134" fill="none" xmlns="http://www.w3.org/2000/svg">
<path d="M2.56889 61.0639C4.36875 65.6604 6.53569 69.1716 8.94045 71.8038C12.1418 75.3117 16.2414 76.0272 19.9686 76.9157C21.0453 77.1716 22.1408 77.3455 23.2451 77.4358C29.7473 77.977 36.2946 75.7791 41.2689 73.4055C44.7577 71.74 48.3772 70.3496 52.0929 69.2474C53.1529 68.9339 54.2201 68.6439 55.2947 68.3775C56.9519 67.9681 86.9271 61.1128 90.4507 44.9497C91.3214 40.9623 91.4237 36.3302 90.4918 30.9462C87.8582 15.7246 78.4402 7.63687 67.9146 3.43562C48.0036 -4.51162 25.166 1.70052 11.8919 18.2285C3.04996 29.2379 -3.98457 44.3236 2.56889 61.0639Z" fill="#EAEBF0"/>
<path d="M21.9169 35.7098C26.5327 32.1787 33.7621 28.8393 41.7515 26.5478C49.0259 24.4614 56.121 23.4541 61.7315 23.7113L61.7607 23.0437C56.0834 22.7835 48.9146 23.7993 41.5752 25.9043C33.5114 28.2171 26.2036 31.596 21.5258 35.1745L21.9169 35.7098Z" fill="#F2F2F2"/>
<path d="M21.3844 38.4298C21.3802 41.5583 22.036 44.6525 23.309 47.5102C23.4153 47.7495 23.526 47.9865 23.6412 48.2213C25.4758 51.9799 28.3294 55.1473 31.8767 57.3627C35.424 59.5781 39.5223 60.7523 43.7044 60.7515C56.0312 60.7515 66.0244 50.7576 66.0244 38.4298C66.0244 37.9132 66.0068 37.4006 65.9716 36.8921C65.9549 36.6334 65.9333 36.3763 65.9068 36.1208C64.7514 24.8778 55.2513 16.1082 43.7044 16.1082C31.3776 16.1082 21.3844 26.1021 21.3844 38.4298Z" fill="#4FC87B"/>
<path opacity="0.1" d="M24.278 47.5098C24.3819 47.7491 24.4901 47.9861 24.6026 48.2209C25.24 48.2918 25.911 48.3432 26.6155 48.3753C27.1987 48.402 27.7989 48.4154 28.4121 48.4154C33.7689 48.4154 40.2156 47.4036 46.8015 45.5149C54.1411 43.4097 60.7811 40.4651 65.4992 37.2231C65.6598 37.1128 65.8177 37.0023 65.9727 36.8916C65.9563 36.633 65.9352 36.3759 65.9093 36.1204C65.6592 36.3028 65.4012 36.4855 65.1354 36.6684C60.4729 39.8716 53.8994 42.7848 46.6252 44.8713C40.0968 46.7439 33.7107 47.7471 28.4154 47.7471C27.81 47.7471 27.2198 47.7339 26.6448 47.7076C25.8076 47.6689 25.0186 47.6029 24.278 47.5098Z" fill="black"/>
<path d="M28.4117 47.8811C33.7683 47.8813 40.2154 46.8693 46.801 44.9805C54.1404 42.8754 60.7808 39.9307 65.4988 36.6888C70.3153 33.3793 72.5739 30.1182 71.8585 27.5062C71.1431 24.8943 67.5572 23.3095 61.7614 23.0437L61.7322 23.7114C64.4387 23.8355 66.6445 24.2471 68.2881 24.9349C69.9278 25.621 70.9174 26.5468 71.2296 27.6866C71.5418 28.8265 71.1665 30.1437 70.1142 31.6019C69.0594 33.0636 67.384 34.5884 65.1347 36.134C60.4728 39.3373 53.8991 42.2506 46.6247 44.337C40.0961 46.2094 33.7107 47.2128 28.4149 47.213C27.8098 47.213 27.2197 47.1998 26.6447 47.1735C23.9381 47.0493 21.7323 46.6377 20.0887 45.9499C18.449 45.2639 17.4594 44.3381 17.1472 43.1982C16.5866 41.1515 18.2807 38.4921 21.9175 35.7099L21.5264 35.1746C19.655 36.6064 18.2696 38.0176 17.4089 39.3691C16.4861 40.8181 16.1865 42.1671 16.5183 43.3786C17.2337 45.9905 20.8196 47.5753 26.6154 47.8411C27.1986 47.8679 27.7984 47.8811 28.4117 47.8811Z" fill="#3C915B"/>
<path d="M43.634 12.082C43.496 12.082 43.3842 11.9675 43.3842 11.8263C43.3842 11.685 43.496 11.5706 43.634 11.5706C43.772 11.5706 43.8838 11.685 43.8838 11.8263C43.8838 11.9675 43.772 12.082 43.634 12.082Z" fill="#F2F2F2"/>
<path d="M76.7951 22.9972C76.6572 22.9972 76.5453 22.8827 76.5453 22.7414C76.5453 22.6001 76.6572 22.4856 76.7951 22.4856C76.9331 22.4856 77.0449 22.6001 77.0449 22.7414C77.0449 22.8827 76.9331 22.9972 76.7951 22.9972Z" fill="#F2F2F2"/>
<path d="M77.7111 40.2209C77.5731 40.2209 77.4613 40.1062 77.4613 39.9648C77.4613 39.8234 77.5731 39.7087 77.7111 39.7087C77.8491 39.7087 77.9609 39.8234 77.9609 39.9648C77.9609 40.1062 77.8491 40.2209 77.7111 40.2209Z" fill="#F2F2F2"/>
<path d="M26.7202 13.5316C26.6282 13.5316 26.5536 13.4552 26.5536 13.361C26.5536 13.2668 26.6282 13.1904 26.7202 13.1904C26.8122 13.1904 26.8867 13.2668 26.8867 13.361C26.8867 13.4552 26.8122 13.5316 26.7202 13.5316Z" fill="#F2F2F2"/>
<path d="M6.64012 37.5774C6.54815 37.5774 6.47359 37.501 6.47359 37.4066C6.47359 37.3123 6.54815 37.2358 6.64012 37.2358C6.73209 37.2358 6.80664 37.3123 6.80664 37.4066C6.80664 37.501 6.73209 37.5774 6.64012 37.5774Z" fill="#F2F2F2"/>
<path d="M15.8061 29.7327C15.7141 29.7327 15.6396 29.6564 15.6396 29.5622C15.6396 29.468 15.7141 29.3916 15.8061 29.3916C15.8981 29.3916 15.9727 29.468 15.9727 29.5622C15.9727 29.6564 15.8981 29.7327 15.8061 29.7327Z" fill="#F2F2F2"/>
<path d="M61.7143 17.3685C61.6223 17.3685 61.5478 17.2921 61.5478 17.1979C61.5478 17.1037 61.6223 17.0273 61.7143 17.0273C61.8063 17.0273 61.8809 17.1037 61.8809 17.1979C61.8809 17.2921 61.8063 17.3685 61.7143 17.3685Z" fill="#F2F2F2"/>
<path d="M16.3881 35.2755C16.2962 35.2755 16.2216 35.199 16.2216 35.1047C16.2216 35.0103 16.2962 34.9338 16.3881 34.9338C16.4801 34.9338 16.5547 35.0103 16.5547 35.1047C16.5547 35.199 16.4801 35.2755 16.3881 35.2755Z" fill="#F2F2F2"/>
<path d="M75.7124 52.413C75.6204 52.413 75.5459 52.3365 75.5459 52.2421C75.5459 52.1478 75.6204 52.0713 75.7124 52.0713C75.8044 52.0713 75.8789 52.1478 75.8789 52.2421C75.8789 52.3365 75.8044 52.413 75.7124 52.413Z" fill="#F2F2F2"/>
<path d="M65.7973 59.4048C65.7054 59.4048 65.6308 59.3283 65.6308 59.2339C65.6308 59.1395 65.7054 59.063 65.7973 59.063C65.8893 59.063 65.9639 59.1395 65.9639 59.2339C65.9639 59.3283 65.8893 59.4048 65.7973 59.4048Z" fill="#F2F2F2"/>
<path d="M51.3829 4.68695L51.6127 4.68695L51.6127 4.45166L51.7359 4.45166L51.7359 4.68695L51.9658 4.68695L51.9658 4.81326L51.7359 4.81326L51.7359 5.04855L51.6127 5.04855L51.6127 4.81326L51.3829 4.81326L51.3829 4.68695Z" fill="#F2F2F2"/>
<path d="M26.5538 62.6645L26.7837 62.6645L26.7837 62.4292L26.9069 62.4292L26.9069 62.6645L27.1367 62.6645L27.1367 62.7908L26.9069 62.7908L26.9069 63.0261L26.7837 63.0261L26.7837 62.7908L26.5538 62.7908L26.5538 62.6645Z" fill="#F2F2F2"/>
<path d="M11.1378 59.1686L11.3676 59.1686L11.3676 58.9333L11.4909 58.9333L11.4909 59.1686L11.7207 59.1686L11.7207 59.2949L11.4909 59.2949L11.4909 59.5301L11.3676 59.5301L11.3676 59.2949L11.1378 59.2949L11.1378 59.1686Z" fill="#F2F2F2"/>
<path d="M43.8847 22.8271C42.8724 22.8271 42.0517 21.9872 42.0517 20.9511C42.0517 19.9151 42.8724 19.0752 43.8847 19.0752C44.8971 19.0752 45.7178 19.9151 45.7178 20.9511C45.7178 21.9872 44.8971 22.8271 43.8847 22.8271Z" fill="#111111" fill-opacity="0.3"/>
<path d="M57.9658 36.5545C56.9534 36.5545 56.1327 35.7146 56.1327 34.6785C56.1327 33.6424 56.9534 32.8025 57.9658 32.8025C58.9781 32.8025 59.7988 33.6424 59.7988 34.6785C59.7988 35.7146 58.9781 36.5545 57.9658 36.5545Z" fill="#111111" fill-opacity="0.3"/>
<path d="M37.7177 55.3967C36.7054 55.3967 35.8847 54.5568 35.8847 53.5207C35.8847 52.4847 36.7054 51.6448 37.7177 51.6448C38.7301 51.6448 39.5508 52.4847 39.5508 53.5207C39.5508 54.5568 38.7301 55.3967 37.7177 55.3967Z" fill="#111111" fill-opacity="0.3"/>
<path d="M43.8847 39.4532C42.8724 39.4532 42.0517 38.6133 42.0517 37.5773C42.0517 36.5413 42.8724 35.7014 43.8847 35.7014C44.8971 35.7014 45.7178 36.5413 45.7178 37.5773C45.7178 38.6133 44.8971 39.4532 43.8847 39.4532Z" fill="#111111" fill-opacity="0.3"/>
<path d="M57.0488 49.77C56.0364 49.77 55.2157 48.9301 55.2157 47.894C55.2157 46.858 56.0364 46.0181 57.0488 46.0181C58.0611 46.0181 58.8818 46.858 58.8818 47.894C58.8818 48.9301 58.0611 49.77 57.0488 49.77Z" fill="#111111" fill-opacity="0.3"/>
<path d="M34.0507 29.3924C33.0384 29.3924 32.2177 28.5525 32.2177 27.5164C32.2177 26.4803 33.0384 25.6404 34.0507 25.6404C35.0631 25.6404 35.8838 26.4803 35.8838 27.5164C35.8838 28.5525 35.0631 29.3924 34.0507 29.3924Z" fill="#111111" fill-opacity="0.3"/>
<path d="M27.9687 42.0962C26.9564 42.0962 26.1357 41.2563 26.1357 40.2202C26.1357 39.1841 26.9564 38.3442 27.9687 38.3442C28.9811 38.3442 29.8018 39.1841 29.8018 40.2202C29.8018 41.2563 28.9811 42.0962 27.9687 42.0962Z" fill="#111111" fill-opacity="0.3"/>
<path d="M43.8835 31.8646C42.549 31.8646 41.4672 30.7575 41.4672 29.3918C41.4672 28.0261 42.549 26.9189 43.8835 26.9189C45.218 26.9189 46.2998 28.0261 46.2998 29.3918C46.2998 30.7575 45.218 31.8646 43.8835 31.8646Z" fill="white"/>
<path d="M43.8836 25.8108C44.7897 25.8108 45.6586 26.1791 46.2992 26.8347C46.9399 27.4903 47.2998 28.3794 47.2998 29.3065C47.2998 31.2372 43.8836 37.577 43.8836 37.577C43.8836 37.577 40.4675 31.2372 40.4675 29.3065C40.4675 28.3794 40.8274 27.4903 41.4681 26.8347C42.1087 26.1791 42.9776 25.8108 43.8836 25.8108ZM43.8836 31.0118C44.1968 31.0118 44.5028 30.9168 44.7632 30.7388C45.0235 30.5608 45.2264 30.3078 45.3462 30.0117C45.4661 29.7157 45.4974 29.39 45.4363 29.0758C45.3752 28.7615 45.2245 28.4729 45.0031 28.2463C44.7817 28.0197 44.4996 27.8654 44.1925 27.8029C43.8854 27.7404 43.5671 27.7725 43.2778 27.8951C42.9885 28.0177 42.7413 28.2254 42.5674 28.4918C42.3934 28.7582 42.3005 29.0714 42.3005 29.3918C42.3005 29.6045 42.3415 29.8152 42.4211 30.0117C42.5006 30.2083 42.6172 30.3869 42.7642 30.5373C42.9112 30.6877 43.0858 30.8071 43.2778 30.8885C43.4699 30.9699 43.6757 31.0118 43.8836 31.0118L43.8836 31.0118Z" fill="#FFD669"/>
<path d="M57.0495 42.4374C55.7151 42.4374 54.6332 41.3302 54.6332 39.9645C54.6332 38.5988 55.7151 37.4917 57.0495 37.4917C58.384 37.4917 59.4658 38.5988 59.4658 39.9645C59.4658 41.3302 58.384 42.4374 57.0495 42.4374Z" fill="white"/>
<path d="M57.0467 36.3831C57.9528 36.3831 58.8217 36.7514 59.4623 37.4069C60.103 38.0625 60.4629 38.9517 60.4629 39.8788C60.4629 41.8095 57.0467 48.1492 57.0467 48.1492C57.0467 48.1492 53.6306 41.8095 53.6306 39.8788C53.6306 38.9517 53.9905 38.0625 54.6311 37.4069C55.2718 36.7514 56.1407 36.3831 57.0467 36.3831ZM57.0467 41.5841C57.3598 41.5841 57.6659 41.489 57.9263 41.311C58.1866 41.133 58.3895 40.88 58.5093 40.584C58.6291 40.288 58.6605 39.9623 58.5994 39.648C58.5383 39.3338 58.3876 39.0451 58.1662 38.8186C57.9448 38.592 57.6627 38.4377 57.3556 38.3752C57.0485 38.3127 56.7302 38.3448 56.4409 38.4674C56.1516 38.59 55.9044 38.7976 55.7304 39.0641C55.5565 39.3305 55.4636 39.6437 55.4636 39.9641C55.4636 40.1768 55.5046 40.3875 55.5841 40.584C55.6637 40.7806 55.7803 40.9591 55.9273 41.1096C56.0743 41.26 56.2488 41.3793 56.4409 41.4607C56.633 41.5421 56.8388 41.5841 57.0467 41.5841Z" fill="#FFD669"/>
<path d="M27.9694 34.7639C26.6349 34.7639 25.5531 33.6567 25.5531 32.291C25.5531 30.9253 26.6349 29.8181 27.9694 29.8181C29.3039 29.8181 30.3857 30.9253 30.3857 32.291C30.3857 33.6567 29.3039 34.7639 27.9694 34.7639Z" fill="white"/>
<path d="M27.9686 28.7097C28.8746 28.7097 29.7435 29.078 30.3842 29.7336C31.0248 30.3892 31.3848 31.2783 31.3848 32.2054C31.3848 34.1361 27.9686 40.4758 27.9686 40.4758C27.9686 40.4758 24.5525 34.1361 24.5525 32.2054C24.5525 31.2783 24.9124 30.3892 25.553 29.7336C26.1937 29.078 27.0626 28.7097 27.9686 28.7097ZM27.9686 33.9107C28.2817 33.9107 28.5878 33.8157 28.8481 33.6377C29.1085 33.4597 29.3114 33.2066 29.4312 32.9106C29.551 32.6146 29.5824 32.2889 29.5213 31.9747C29.4602 31.6604 29.3094 31.3718 29.088 31.1452C28.8666 30.9186 28.5845 30.7644 28.2775 30.7019C27.9704 30.6393 27.6521 30.6714 27.3628 30.794C27.0735 30.9166 26.8263 31.1243 26.6523 31.3907C26.4784 31.6571 26.3855 31.9703 26.3855 32.2907C26.3855 32.7203 26.5523 33.1324 26.8492 33.4362C27.1461 33.74 27.5487 33.9107 27.9686 33.9107Z" fill="#FFD669"/>
<path d="M43.8835 15.2391C42.549 15.2391 41.4672 14.132 41.4672 12.7663C41.4672 11.4006 42.549 10.2935 43.8835 10.2935C45.218 10.2935 46.2998 11.4006 46.2998 12.7663C46.2998 14.132 45.218 15.2391 43.8835 15.2391Z" fill="white"/>
<path d="M43.8836 9.18457C44.7897 9.18457 45.6586 9.55287 46.2992 10.2085C46.9399 10.864 47.2998 11.7532 47.2998 12.6803C47.2998 14.611 43.8836 20.9508 43.8836 20.9508C43.8836 20.9508 40.4675 14.611 40.4675 12.6803C40.4675 11.7532 40.8274 10.864 41.4681 10.2085C42.1087 9.55287 42.9776 9.18457 43.8836 9.18457ZM43.8836 14.3856C44.1968 14.3856 44.5028 14.2906 44.7632 14.1125C45.0235 13.9345 45.2264 13.6815 45.3462 13.3855C45.4661 13.0895 45.4974 12.7638 45.4363 12.4495C45.3752 12.1353 45.2245 11.8466 45.0031 11.6201C44.7817 11.3935 44.4996 11.2392 44.1925 11.1767C43.8854 11.1142 43.5671 11.1463 43.2778 11.2689C42.9885 11.3915 42.7413 11.5992 42.5674 11.8656C42.3934 12.132 42.3005 12.4452 42.3005 12.7656C42.3005 13.1952 42.4673 13.6073 42.7642 13.9111C43.0611 14.2149 43.4638 14.3856 43.8836 14.3856Z" fill="#FFD669"/>
<path d="M37.7175 48.0645C36.383 48.0645 35.3012 46.9573 35.3012 45.5916C35.3012 44.2258 36.383 43.1187 37.7175 43.1187C39.052 43.1187 40.1338 44.2258 40.1338 45.5916C40.1338 46.9573 39.052 48.0645 37.7175 48.0645Z" fill="white"/>
<path d="M37.7177 42.0107C38.6237 42.0107 39.4926 42.379 40.1332 43.0346C40.7739 43.6902 41.1338 44.5793 41.1338 45.5064C41.1338 47.4371 37.7177 53.7767 37.7177 53.7767C37.7177 53.7767 34.3015 47.4371 34.3015 45.5064C34.3015 45.0474 34.3899 44.5928 34.5616 44.1687C34.7332 43.7446 34.9849 43.3592 35.3021 43.0346C35.6193 42.71 35.9959 42.4525 36.4104 42.2768C36.8248 42.1012 37.269 42.0107 37.7177 42.0107ZM37.7177 47.2117C38.0308 47.2117 38.3368 47.1166 38.5972 46.9386C38.8575 46.7606 39.0604 46.5076 39.1802 46.2116C39.3001 45.9156 39.3314 45.5899 39.2703 45.2757C39.2092 44.9614 39.0585 44.6728 38.8371 44.4462C38.6157 44.2197 38.3336 44.0654 38.0265 44.0029C37.7194 43.9404 37.4011 43.9724 37.1118 44.095C36.8226 44.2177 36.5753 44.4253 36.4014 44.6917C36.2274 44.9581 36.1346 45.2713 36.1346 45.5917C36.1346 46.0213 36.3014 46.4334 36.5982 46.7372C36.8951 47.041 37.2978 47.2117 37.7177 47.2117Z" fill="#FFD669"/>
<path d="M57.9665 29.0512C56.632 29.0512 55.5502 27.9441 55.5502 26.5783C55.5502 25.2126 56.632 24.1055 57.9665 24.1055C59.301 24.1055 60.3828 25.2126 60.3828 26.5783C60.3828 27.9441 59.301 29.0512 57.9665 29.0512Z" fill="white"/>
<path d="M57.9637 22.9971C58.8697 22.9971 59.7387 23.3654 60.3793 24.021C61.02 24.6765 61.3799 25.5657 61.3799 26.4928C61.3799 28.4235 57.9637 34.7633 57.9637 34.7633C57.9637 34.7633 54.5476 28.4235 54.5476 26.4928C54.5476 26.0338 54.6359 25.5792 54.8076 25.1551C54.9793 24.7309 55.2309 24.3456 55.5481 24.021C55.8654 23.6963 56.242 23.4388 56.6564 23.2632C57.0709 23.0875 57.5151 22.9971 57.9637 22.9971ZM57.9637 28.1981C58.2768 28.1981 58.5829 28.1031 58.8432 27.925C59.1036 27.747 59.3065 27.494 59.4263 27.198C59.5461 26.902 59.5775 26.5763 59.5164 26.262C59.4553 25.9478 59.3045 25.6591 59.0831 25.4326C58.8617 25.206 58.5797 25.0517 58.2726 24.9892C57.9655 24.9267 57.6472 24.9588 57.3579 25.0814C57.0686 25.204 56.8214 25.4117 56.6474 25.6781C56.4735 25.9445 56.3806 26.2577 56.3806 26.5781C56.3806 27.0077 56.5474 27.4198 56.8443 27.7236C57.1412 28.0274 57.5439 28.1981 57.9637 28.1981Z" fill="#FFD669"/>
<path d="M34.0515 22.145C32.717 22.145 31.6352 21.0378 31.6352 19.6721C31.6352 18.3064 32.717 17.1992 34.0515 17.1992C35.386 17.1992 36.4678 18.3064 36.4678 19.6721C36.4678 21.0378 35.386 22.145 34.0515 22.145Z" fill="white"/>
<path d="M34.0526 16.0911C34.9586 16.0911 35.8275 16.4594 36.4682 17.1149C37.1088 17.7705 37.4687 18.6597 37.4687 19.5868C37.4687 21.5174 34.0526 27.8572 34.0526 27.8572C34.0526 27.8572 30.6364 21.5174 30.6364 19.5868C30.6364 18.6597 30.9964 17.7705 31.637 17.1149C32.2777 16.4594 33.1466 16.0911 34.0526 16.0911ZM34.0526 21.292C34.3657 21.292 34.6718 21.197 34.9321 21.019C35.1925 20.841 35.3954 20.588 35.5152 20.292C35.635 19.996 35.6664 19.6702 35.6053 19.356C35.5442 19.0418 35.3934 18.7531 35.172 18.5266C34.9506 18.3 34.6685 18.1457 34.3614 18.0832C34.0543 18.0207 33.736 18.0528 33.4468 18.1754C33.1575 18.298 32.9102 18.5056 32.7363 18.772C32.5623 19.0384 32.4695 19.3516 32.4695 19.672C32.4695 20.1017 32.6363 20.5137 32.9332 20.8175C33.2301 21.1213 33.6327 21.292 34.0526 21.292Z" fill="#FFD669"/>
<path d="M94.1311 133.741C105.658 133.741 115.002 130.69 115.002 126.926C115.002 123.163 105.658 120.112 94.1311 120.112C82.6047 120.112 73.2607 123.163 73.2607 126.926C73.2607 130.69 82.6047 133.741 94.1311 133.741Z" fill="#EAEBF0"/>
<path d="M114.955 102.957C114.955 113.778 109.05 117.556 101.766 117.556C94.482 117.556 88.5771 113.778 88.5771 102.957C88.5771 92.1365 101.766 78.3708 101.766 78.3708C101.766 78.3708 114.955 92.1365 114.955 102.957Z" fill="#4FC87B" fill-opacity="0.25"/>
<path d="M101.199 115.514L101.333 106.58L106.907 95.5279L101.354 105.179L101.414 101.162L105.256 93.1654L101.43 100.099L101.538 92.8739L105.652 86.508L101.555 91.7379L101.623 78.4905L101.198 96.0278L101.233 95.3043L97.05 88.3657L101.166 96.6931L100.776 104.762L100.764 104.548L95.9424 97.2459L100.75 105.304L100.701 106.313L100.692 106.328L100.696 106.411L99.7075 126.882H101.029L101.187 116.309L105.983 108.27L101.199 115.514Z" fill="#3F3D56"/>
<path d="M110.563 122.127C110.563 125.235 108.868 126.32 106.778 126.32C106.729 126.32 106.681 126.319 106.633 126.318C106.536 126.316 106.44 126.311 106.345 126.304C104.458 126.158 102.992 125.017 102.992 122.127C102.992 119.136 106.499 115.362 106.762 115.082L106.762 115.082C106.773 115.071 106.778 115.066 106.778 115.066C106.778 115.066 110.563 119.019 110.563 122.127Z" fill="#4FC87B"/>
<path d="M106.841 125.846L108.207 123.737L106.837 126.078L106.834 126.32C106.738 126.318 106.643 126.313 106.55 126.306L106.697 123.196L106.696 123.172L106.698 123.167L106.712 122.873L105.339 120.527L106.717 122.653L106.72 122.715L106.831 120.366L105.655 117.941L106.846 119.953L106.961 115.082L106.962 115.066V115.082L106.943 118.923L108.113 117.4L106.938 119.254L106.907 121.358L108 119.339L106.902 121.667L106.885 122.837L108.472 120.027L106.879 123.245L106.841 125.846Z" fill="#3F3D56"/>
<path d="M80.1432 55.9829C80.1432 55.9829 80.788 60.8372 79.2405 61.1146C77.6929 61.392 76.4033 61.2533 76.4033 61.392C76.4033 61.5307 80.2722 65.8302 80.2722 65.8302L83.8831 65.5528L87.1072 61.8081C87.1072 61.8081 84.1411 61.2533 84.1411 59.3116C84.1411 57.3699 84.0121 55.9829 84.0121 55.9829H80.1432Z" fill="#FFCEA9"/>
<path d="M92.2838 73.4768L93.0821 74.9281C93.0821 74.9281 93.4339 77.6473 91.6449 77.6473C89.856 77.6473 87.3003 75.006 87.3003 75.006C87.3003 75.006 86.0225 74.4499 85.2558 74.5889C84.4891 74.7279 80.2723 74.5889 82.0612 72.2256C83.8502 69.8624 86.917 72.2256 86.917 72.2256L90.1115 73.8938L91.7727 72.9207L92.2838 73.4768Z" fill="#FFCEA9"/>
<path d="M83.8025 119.286C83.8025 119.286 83.4052 121.792 82.7432 122.188C82.0811 122.584 86.186 123.507 86.186 123.507L86.848 119.55L83.8025 119.286Z" fill="#FFCEA9"/>
<path d="M88.5658 89.7441L89.9789 91.5168L89.3366 97.6529L88.8228 109.789C88.8228 109.789 89.8505 120.288 88.8228 120.561C87.795 120.834 83.1704 120.697 83.2988 120.016C83.4273 119.334 83.5558 118.788 83.8127 117.834C84.0696 116.879 83.5558 113.47 83.5558 113.47L84.1981 109.652L81.8857 93.1531L88.5658 89.7441Z" fill="#2F2E41"/>
<path d="M84.0355 121.935C84.0355 121.935 82.6272 121.672 82.4991 121.935C82.3711 122.198 79.9386 124.96 79.5545 124.96C79.1704 124.96 76.3538 127.59 79.2984 127.722C82.2431 127.853 87.1081 125.486 87.1081 125.486C87.1081 125.486 86.3922 122.139 86.4301 122.3C86.468 122.461 84.0355 122.593 84.0355 121.935Z" fill="#2F2E41"/>
<path d="M82.4072 115.571C82.4072 115.571 85.9905 119.819 86.1185 120.231C86.2465 120.642 88.1661 120.231 88.1661 120.231L88.934 117.49L88.2941 116.53L84.7108 113.378L82.4072 115.571Z" fill="#FFCEA9"/>
<path d="M87.4104 118.805L85.541 120.669C85.541 120.669 87.9261 124.542 87.9261 124.952C87.9261 125.362 88.055 128.777 89.3443 128.23C90.6335 127.684 90.7624 122.22 90.7624 122.22C90.7624 122.22 90.6335 116.619 89.8599 116.21C89.0864 115.8 87.391 115.929 87.391 115.929C87.391 115.929 88.4418 118.668 87.4104 118.805Z" fill="#2F2E41"/>
<path d="M77.0991 77.6472C77.0991 77.6472 76.4677 79.8262 76.3415 80.371C76.2152 80.9157 75.4576 82.4138 75.4576 84.7289C75.4576 87.0441 75.7102 89.7678 75.4576 90.0402C75.2051 90.3126 71.1646 105.565 72.9323 107.2C74.7 108.834 80.5082 114.281 80.887 114.962C81.2658 115.643 81.3921 117.277 82.1497 117.005C82.9072 116.733 85.8113 114.009 85.9376 113.464C86.0639 112.919 84.2962 111.966 84.2962 111.966C84.2962 111.966 80.7607 106.383 79.8769 106.519C78.993 106.655 79.1193 105.838 79.2456 105.429C79.3718 105.021 79.6244 104.748 79.2456 104.748C78.8668 104.748 79.1193 103.659 79.2456 103.114C79.3718 102.569 82.2759 95.2153 82.2759 95.2153L89.9781 91.5382C89.9781 91.5382 89.5993 81.5966 86.8215 78.8729L86.1901 77.2387C86.1901 77.2387 79.1193 76.6939 77.0991 77.6472Z" fill="#2F2E41"/>
<path opacity="0.1" d="M80.1432 55.9829C80.1432 55.9829 80.788 60.8372 79.2405 61.1146C77.6929 61.392 76.4033 61.2533 76.4033 61.392C76.4033 61.5307 80.2722 65.8302 80.2722 65.8302L83.8831 65.5528L87.1072 61.8081C87.1072 61.8081 84.1411 61.2533 84.1411 59.3116C84.1411 57.3699 84.0121 55.9829 84.0121 55.9829H80.1432Z" fill="black"/>
<path d="M82.1465 57.952C84.3093 57.952 86.0626 56.0625 86.0626 53.7317C86.0626 51.4009 84.3093 49.5115 82.1465 49.5115C79.9837 49.5115 78.2305 51.4009 78.2305 53.7317C78.2305 56.0625 79.9837 57.952 82.1465 57.952Z" fill="#FFCEA9"/>
<path d="M78.6143 60.7654C78.6143 60.7654 73.6829 61.4419 73.3036 63.2009C72.9242 64.9599 75.8325 75.9196 76.2118 76.8668C76.5912 77.8139 76.4647 78.4904 76.4647 78.4904C77.0369 78.0326 77.694 77.7111 78.3919 77.5478C79.0899 77.3844 79.8124 77.3829 80.511 77.5433C82.9134 78.0845 86.3275 77.8139 86.3275 77.8139C86.3275 77.8139 87.4655 72.8076 87.7184 72.2664C87.9713 71.7252 88.9828 68.7484 88.9828 67.9366C88.9828 67.1248 90.5002 63.7421 90.5002 63.7421C90.5002 63.7421 89.7415 61.3066 86.9597 61.4419C86.9597 61.4419 85.7463 60.8608 85.4047 61.2866C85.063 61.7125 83.1663 63.6068 80.7639 62.795C78.3614 61.9831 78.6143 60.7654 78.6143 60.7654Z" fill="#F4F4F4"/>
<path d="M74.7473 63.0161H73.2843L72.4863 73.8089C72.4863 73.8089 75.4123 74.6286 75.8113 74.0821C76.2103 73.5357 74.7473 63.0161 74.7473 63.0161Z" fill="#EDEDED"/>
<path d="M72.8785 72.6023L72.502 73.6879C72.502 73.6879 72.251 77.2162 73.757 77.0805C75.2629 76.9447 76.1413 74.9092 76.1413 74.9092C76.1413 74.9092 75.2629 72.3309 74.2589 72.6023C73.255 72.8737 72.8785 72.6023 72.8785 72.6023Z" fill="#EDEDED"/>
<path d="M88.1514 63.0161L90.5327 63.7045C90.5327 63.7045 92.2874 70.7262 92.4127 70.8639C92.5381 71.0016 92.6634 71.8277 92.6634 71.8277C92.6634 71.8277 92.6634 71.9654 92.9141 72.3784C93.1648 72.7914 93.5408 72.5161 93.2901 73.0668C93.0394 73.6175 92.6634 73.3422 92.9141 73.8929C93.1648 74.4436 93.0394 75.9581 93.0394 75.9581C93.0394 75.9581 92.4127 73.3422 90.1567 74.0306L88.6527 66.5958L88.1514 63.0161Z" fill="#EDEDED"/>
<path d="M77.6435 50.271C76.8504 51.7901 76.6718 53.5894 76.5624 55.3332C76.5155 56.0811 76.4802 56.8487 76.6837 57.5648C76.8982 58.3198 77.3755 59.0869 77.1307 59.831C76.894 60.5506 76.1023 60.8385 75.6601 61.4319C75.2854 61.9347 75.1913 62.6237 75.2238 63.2706C75.2563 63.9175 75.4002 64.5526 75.4424 65.1988C75.5295 66.6184 75.1277 68.0222 74.3154 69.1357C76.2102 69.0561 78.236 68.14 79.035 66.2652C79.2739 65.7048 79.3901 65.0914 79.6057 64.5198C79.8495 63.8732 80.2175 63.2879 80.4485 62.6357C80.7969 61.6516 80.8158 60.571 80.8303 59.5163C80.8389 58.8849 80.8451 58.2367 80.6447 57.6442C80.2035 56.3401 78.8316 55.4974 78.6953 54.1154C78.6718 53.9692 78.6917 53.8187 78.752 53.6857C78.816 53.5885 78.8936 53.5029 78.982 53.4321C79.8387 52.6077 79.6974 50.8625 80.7172 50.3005C81.1748 50.0483 81.7264 50.137 82.2178 50.2967C82.7635 50.4739 83.3079 50.7485 83.6629 51.2338C84.3778 52.2111 84.0957 53.6229 83.8745 54.8494C83.5539 56.6286 83.4402 58.4447 83.5361 60.2549C83.5424 60.5444 83.5815 60.832 83.6527 61.111C83.7841 61.5637 84.0641 61.944 84.2755 62.3591C84.7063 63.2125 84.8461 64.2046 84.6701 65.1595C84.514 65.9906 84.1264 66.8757 84.4676 67.6381C84.6178 67.9325 84.8271 68.1861 85.0797 68.3801C86.1946 69.3328 87.6098 69.923 88.4387 71.1753C88.5814 70.1524 88.3091 69.1231 88.1081 68.1119C87.907 67.1007 87.7847 65.9999 88.1978 65.0684C88.3791 64.6598 88.6561 64.3043 88.8043 63.8801C89.1465 62.9004 88.7387 61.8259 88.491 60.813C88.3139 60.0176 88.1861 59.2101 88.1084 58.396L87.8529 56.1986C87.6417 54.382 87.4208 52.5284 86.6891 50.8802C85.3103 47.774 82.19 46.6204 79.3963 48.3416C78.6642 48.8022 78.0589 49.4685 77.6435 50.271Z" fill="#FF6A21"/>
<path d="M74.0976 73.4338C74.0976 73.4338 73.3388 75.9581 74.2241 75.9581C75.1095 75.9581 76.7537 74.4154 76.8801 73.1533C77.0066 71.8912 79.2832 67.1231 77.639 67.5438C75.9948 67.9645 75.2359 71.4704 75.2359 71.4704L74.0976 73.4338Z" fill="#FFCEA9"/>
<path d="M87.0145 63.0161L82.9277 77.6823L88.5006 79.053L92.5873 64.798L87.0145 63.0161Z" fill="#4FC87B"/>
<path d="M91.2196 71.7321L89.9785 73.9369C89.9785 73.9369 92.833 74.3503 93.0812 75.0393C93.3294 75.7283 91.9642 71.4565 91.9642 71.4565L91.2196 71.7321Z" fill="#EDEDED"/>
</svg>
