<svg width="115" height="134" viewBox="0 0 115 134" fill="none" xmlns="http://www.w3.org/2000/svg">
<path d="M57.5 133.741C89.2564 133.741 115 127.257 115 119.259C115 111.261 89.2564 104.778 57.5 104.778C25.7436 104.778 0 111.261 0 119.259C0 127.257 25.7436 133.741 57.5 133.741Z" fill="#EAEBF0"/>
<path d="M49.4074 115C76.6944 115 98.8148 92.8795 98.8148 65.5925C98.8148 38.3055 76.6944 16.1851 49.4074 16.1851C22.1204 16.1851 0 38.3055 0 65.5925C0 92.8795 22.1204 115 49.4074 115Z" fill="#111111"/>
<path d="M49.4072 111.593C74.8123 111.593 95.4072 90.9979 95.4072 65.5928C95.4072 40.1877 74.8123 19.5928 49.4072 19.5928C24.0021 19.5928 3.40723 40.1877 3.40723 65.5928C3.40723 90.9979 24.0021 111.593 49.4072 111.593Z" fill="white"/>
<path d="M48.1298 72.4071C51.1878 72.4071 53.6668 69.7374 53.6668 66.4442C53.6668 63.1509 51.1878 60.4812 48.1298 60.4812C45.0718 60.4812 42.5928 63.1509 42.5928 66.4442C42.5928 69.7374 45.0718 72.4071 48.1298 72.4071Z" fill="#111111"/>
<path d="M50.2584 23H48.5547V27.2597H50.2584V23Z" fill="#111111"/>
<path d="M50.2584 105.63H48.5547V109.889H50.2584V105.63Z" fill="#111111"/>
<path d="M10.2227 66.4455V63.8887H5.9634V66.4455H10.2227Z" fill="#111111"/>
<path d="M46 68.9408L48.2036 63.8887L75.8148 79.222L46 68.9408Z" fill="#111111"/>
<path d="M55.3712 4.25977H43.4453V18.7413H55.3712V4.25977Z" fill="#111111"/>
<path d="M49.4073 8.51849C57.4052 8.51849 63.8887 6.61156 63.8887 4.25925C63.8887 1.90693 57.4052 0 49.4073 0C41.4094 0 34.9258 1.90693 34.9258 4.25925C34.9258 6.61156 41.4094 8.51849 49.4073 8.51849Z" fill="#111111"/>
<path d="M74.9627 75.2459L74.0827 76.3804C74.0827 76.3804 70.0346 80.7565 69.8586 78.6495C69.6826 76.5425 72.8507 75.0838 72.8507 75.0838L74.6107 74.1113L74.9627 75.2459Z" fill="#FFCEA9"/>
<path d="M98.0968 78.5627L98.6718 79.779C98.6718 79.779 100.671 85.014 98.9989 84.2598C97.3265 83.5056 97.2674 80.2489 97.2674 80.2489L97.1104 78.3704L98.0968 78.5627Z" fill="#FFCEA9"/>
<path d="M94.1305 57.0742C96.7181 57.0742 98.8157 54.7859 98.8157 51.9631C98.8157 49.1403 96.7181 46.8521 94.1305 46.8521C91.543 46.8521 89.4453 49.1403 89.4453 51.9631C89.4453 54.7859 91.543 57.0742 94.1305 57.0742Z" fill="#FF6A21"/>
<path d="M93.7031 93.9582L94.3315 98.3242V99.6676H97.9449V97.9884C97.9449 97.9884 98.102 94.9658 97.4736 94.1261C96.8452 93.2865 93.7031 93.9582 93.7031 93.9582Z" fill="#FFCEA9"/>
<path d="M86.8896 93.9582L87.6438 98.3242V99.6676H91.9798V97.9884C91.9798 97.9884 92.1683 94.9658 91.4142 94.1261C90.6601 93.2865 86.8896 93.9582 86.8896 93.9582Z" fill="#FFCEA9"/>
<path d="M90.2297 58.7778C90.2297 58.7778 88.818 59.5394 89.7823 61.2717C90.7465 63.004 96.4038 80.926 96.4038 80.926L99.6675 79.9777L96.7892 68.6433L95.1411 61.5195L90.2297 58.7778Z" fill="#4FC87B"/>
<path d="M93.7043 57.0748C95.5861 57.0748 97.1117 55.5491 97.1117 53.667C97.1117 51.785 95.5861 50.2593 93.7043 50.2593C91.8224 50.2593 90.2969 51.785 90.2969 53.667C90.2969 55.5491 91.8224 57.0748 93.7043 57.0748Z" fill="#FFCEA9"/>
<path d="M95.4074 54.5183L94.9815 62.185L92 59.7382C92 59.7382 92.9938 55.1708 92.7099 54.8445L95.4074 54.5183Z" fill="#FFCEA9"/>
<path d="M95.1408 61.0372L91.2778 58.2098C91.2778 58.2098 89.5059 57.493 88.9937 58.3368C88.4814 59.1807 85.9201 71.6697 87.2861 74.0325C87.2861 74.0325 94.6285 75.5514 96.1653 74.7075L96.8484 70.3195C96.8484 70.3195 97.7021 67.6192 96.3361 65.9315L95.1408 61.0372Z" fill="#4FC87B"/>
<path d="M91.1477 59.0661C91.1477 59.0661 89.7976 58.0972 88.6162 59.712C87.4349 61.3267 73.2588 74.0831 73.2588 74.0831L75.6215 76.6666L84.9034 69.2389L90.8101 64.7176L91.1477 59.0661Z" fill="#4FC87B"/>
<path d="M96.1035 74.1242C96.1035 74.1242 88.1034 72.5045 87.2953 73.698L87.1337 75.5735C87.1337 75.5735 85.3559 79.1539 86.3256 84.9508C87.2953 90.7477 86.6488 94.3282 86.6488 94.3282C86.6488 94.3282 91.0125 93.8167 94.2448 94.3282C97.4772 94.8397 97.9621 94.3282 97.9621 94.3282L96.1035 74.1242Z" fill="#111111"/>
<path d="M98.4076 98.8147L93.7031 98.9778L95.3254 111.215C95.3254 111.215 94.0276 116.437 95.4876 116.763C96.5025 116.969 97.5345 117.078 98.5698 117.089C98.5698 117.089 100.03 118.558 101.652 118.395C102.729 118.256 103.773 117.925 104.734 117.416C104.734 117.416 105.059 116.437 103.923 116.11C102.788 115.784 99.7054 114.805 99.0565 111.379L98.4076 98.8147Z" fill="#111111"/>
<path d="M91.5941 98.8147L86.8896 98.9778L88.5119 111.215C88.5119 111.215 87.2141 116.437 88.6741 116.763C89.689 116.969 90.721 117.078 91.7563 117.089C91.7563 117.089 93.2163 118.558 94.8386 118.395C95.9159 118.256 96.9599 117.925 97.9208 117.416C97.9208 117.416 98.2453 116.437 97.1097 116.11C95.9741 115.784 92.8919 114.805 92.243 111.379L91.5941 98.8147Z" fill="#111111"/>
<path d="M95.8327 49.4076C97.0089 49.4076 97.9624 48.454 97.9624 47.2778C97.9624 46.1015 97.0089 45.1479 95.8327 45.1479C94.6566 45.1479 93.7031 46.1015 93.7031 47.2778C93.7031 48.454 94.6566 49.4076 95.8327 49.4076Z" fill="#FF6A21"/>
<path d="M98.4926 45.5742C98.4926 45.0477 98.3513 44.5399 98.0961 44.1487C97.8408 43.7576 97.4897 43.5107 97.1104 43.4559C97.1637 43.4482 97.2174 43.4444 97.2711 43.4443C97.6803 43.4443 98.0728 43.6687 98.3621 44.0681C98.6515 44.4676 98.8141 45.0093 98.8141 45.5742C98.8141 46.139 98.6515 46.6807 98.3621 47.0802C98.0728 47.4796 97.6803 47.704 97.2711 47.704C97.2174 47.7039 97.1637 47.7001 97.1104 47.6925C97.4897 47.6376 97.8408 47.3907 98.0961 46.9996C98.3513 46.6084 98.4926 46.1006 98.4926 45.5742Z" fill="#FF6A21"/>
<path d="M93.7043 52.817C95.5861 52.817 97.1117 52.0538 97.1117 51.1122C97.1117 50.1707 95.5861 49.4075 93.7043 49.4075C91.8224 49.4075 90.2969 50.1707 90.2969 51.1122C90.2969 52.0538 91.8224 52.817 93.7043 52.817Z" fill="#FF6A21"/>
</svg>
