<svg width="115" height="134" viewBox="0 0 115 134" fill="none" xmlns="http://www.w3.org/2000/svg">
<path d="M89.8959 2.85958C89.9669 2.84019 90.0348 2.81758 90.1059 2.80142L90.2998 2.75942L90.5518 2.72064H90.694C90.7974 2.72064 90.8975 2.72064 90.9945 2.72064H91.0655C91.1839 2.72735 91.3016 2.74246 91.4177 2.76588L91.4985 2.78527C91.5872 2.80468 91.6746 2.8295 91.7602 2.85958L91.841 2.88866C91.9518 2.93003 92.0597 2.9786 92.1641 3.03407L87.4434 0.274649H87.4176C87.3408 0.230064 87.2609 0.191185 87.1784 0.158327H87.13L87.0524 0.129247C87.0104 0.129247 86.9717 0.096935 86.9296 0.0872415L86.7907 0.0549298L86.7067 0.0355428C86.6917 0.0337163 86.6765 0.0337163 86.6615 0.0355428C86.5674 0.0187321 86.4725 0.00686818 86.3771 0H86.2737C86.1994 0 86.1251 0 86.0508 0H85.97H85.8278H85.6953L85.579 0.0258493L85.3852 0.0678545L85.3044 0.077548L85.1978 0.113091L84.8746 0.229413C84.8359 0.245569 84.7971 0.252031 84.7551 0.271418L84.6872 0.30373C84.4834 0.391095 84.2849 0.490355 84.0927 0.600997L4.72559 46.4092L9.43339 49.146L88.7779 3.33779C88.9712 3.22712 89.1708 3.12786 89.3756 3.04053L89.5598 2.96621L89.8959 2.85958Z" fill="#E9EAF4"/>
<path d="M4.8823 118.079L4.70782 57.3334C4.71024 57.0547 4.72858 56.7764 4.76275 56.4998C4.76275 56.4319 4.76275 56.3673 4.7886 56.2994C4.7886 56.1734 4.82737 56.0474 4.85322 55.9214C4.87907 55.7954 4.88553 55.7469 4.90492 55.6597C4.92431 55.5724 4.94369 55.5014 4.96308 55.4206C4.98247 55.3398 5.02124 55.1944 5.05355 55.0975L5.11171 54.9036C5.15372 54.7743 5.19573 54.6483 5.24096 54.5223C5.25712 54.4706 5.2765 54.4189 5.29589 54.3672C5.36051 54.1927 5.4316 54.0182 5.50592 53.847C5.51318 53.827 5.52182 53.8076 5.53177 53.7888C5.59962 53.6337 5.67394 53.4657 5.74826 53.3268C5.77087 53.2815 5.79672 53.2331 5.81934 53.1846C5.89258 53.0424 5.97013 52.9003 6.05199 52.7581L6.09722 52.6773C6.19093 52.5125 6.29109 52.3542 6.39449 52.1926L6.48819 52.0569C6.56251 51.9406 6.64329 51.8275 6.72084 51.7338L6.85332 51.5561L7.06657 51.2815L7.25075 51.0585C7.30891 50.9874 7.3703 50.9196 7.4317 50.8517C7.49309 50.7839 7.63849 50.6255 7.75481 50.5286L7.90991 50.3703C8.1227 50.163 8.34595 49.9667 8.57876 49.7822L8.70155 49.6917C8.93579 49.5087 9.18189 49.3414 9.43825 49.1909L4.73044 46.4541C4.47353 46.6054 4.2264 46.7726 3.9905 46.9549L3.86771 47.0454C3.64153 47.2263 3.41858 47.4235 3.20209 47.6335L3.14393 47.6819C3.11162 47.7175 3.07931 47.7563 3.04376 47.7918C2.93714 47.8984 2.83051 48.0115 2.72065 48.1149C2.6851 48.1537 2.64956 48.186 2.61725 48.2248L2.5397 48.3217C2.47508 48.3928 2.41692 48.4703 2.35552 48.5447C2.29413 48.619 2.27151 48.6416 2.23274 48.6933C2.19397 48.745 2.17135 48.7773 2.13904 48.8193C2.10672 48.8613 2.05179 48.9356 2.00979 48.997L1.91932 49.1198C1.86762 49.1909 1.82238 49.262 1.77391 49.3363L1.68344 49.472L1.64467 49.5302C1.56066 49.6594 1.47988 49.7951 1.3991 49.9308V49.9567L1.35386 50.0375C1.29893 50.1344 1.244 50.2313 1.1923 50.3283L1.12445 50.464L1.05336 50.6061C1.03074 50.6481 1.00813 50.6902 0.988739 50.7322C0.93704 50.842 0.885341 50.9551 0.836874 51.0553L0.807793 51.1134C0.746401 51.2524 0.68824 51.3945 0.63331 51.5367C0.63331 51.5626 0.63331 51.5916 0.60746 51.6175C0.581611 51.6433 0.568686 51.7209 0.549299 51.7726C0.529912 51.8243 0.497601 51.9148 0.474982 51.9858C0.452364 52.0569 0.439439 52.0957 0.423284 52.1539C0.407128 52.212 0.381278 52.2831 0.361891 52.3477C0.342504 52.4124 0.336042 52.4285 0.326348 52.4673C0.316655 52.5061 0.290806 52.6127 0.271418 52.687L0.213257 52.9293L0.19387 53.0101C0.19387 53.0683 0.174483 53.1264 0.161559 53.1846C0.13894 53.3139 0.116322 53.4399 0.0969352 53.5659C0.0969352 53.5982 0.0969352 53.6337 0.0969352 53.6693C0.0969352 53.7048 0.0969352 53.7339 0.0969352 53.7662C0.0489484 54.0399 0.0165843 54.3161 0 54.5934V115.426C0 116.922 0.704396 117.885 1.55419 118.38L6.26201 121.12C5.41221 120.625 4.88553 119.575 4.8823 118.079Z" fill="#D5D7E2"/>
<path d="M88.7764 3.33819C91.3969 1.82601 93.523 3.0377 93.5327 6.04914L93.704 66.795C93.704 69.8032 91.6005 73.4641 88.98 74.9763L9.63553 120.797C7.01829 122.31 4.88895 121.098 4.88249 118.09L4.70801 57.3439C4.70801 54.3324 6.81473 50.6715 9.43197 49.1593L88.7764 3.33819Z" fill="white"/>
<path d="M86.4518 26.5925V27.1419C86.1977 27.7009 86.0018 28.2846 85.8669 28.8837C85.6923 29.516 85.5936 30.1669 85.5729 30.8226L86.064 30.5382V31.2491L84.1996 32.3252V31.6175L84.6876 31.3364C84.7315 30.7468 84.8399 30.1638 85.0107 29.5978C85.1771 28.9625 85.3931 28.3412 85.6569 27.7397L84.6552 28.3214V28.9451L84.0381 29.3005V27.9821L86.4518 26.5925Z" fill="#4FC87B"/>
<path d="M83.978 38.0596L83.9877 41.7855L84.4918 41.4979V42.2088L82.6016 43.2978V42.5869L83.1347 42.2799L83.125 39.2649L82.5628 39.5913L82.5596 38.8804L83.978 38.0596Z" fill="#4FC87B"/>
<path d="M88.003 38.9586L87.6282 39.1751V39.7439L87.9513 39.5565V40.2028L86.4036 41.0947V40.4484L86.8333 40.1995V39.6308L85.4116 40.4516C85.3607 40.2948 85.2924 40.1441 85.208 40.0024L86.8592 36.3185L87.6217 35.8757V38.5644L87.9998 38.3479L88.003 38.9586ZM86.8301 39.0265V37.4786L85.8607 39.5823L86.8301 39.0265Z" fill="#4FC87B"/>
<path d="M83.8974 48.196C84.2658 47.9859 84.5436 47.9342 84.7666 48.0506C84.8809 48.1221 84.9722 48.225 85.0295 48.3471C85.0869 48.4692 85.1077 48.6052 85.0897 48.7389C85.0897 48.9341 85.0592 49.1282 84.9992 49.3141C84.9388 49.5014 84.8575 49.6813 84.7569 49.8505C84.6567 50.0153 84.4887 50.2706 84.2399 50.6164C83.9732 50.9677 83.7416 51.3443 83.5484 51.7409C83.464 51.9177 83.4021 52.1045 83.3643 52.2967L84.4887 51.6504V51.0752L85.1059 50.7165L85.08 52.0253L82.6017 53.4568C82.5944 53.1316 82.6226 52.8065 82.6857 52.4874C82.7449 52.2209 82.8338 51.9618 82.9507 51.7151C83.1043 51.3811 83.2791 51.0573 83.4741 50.7456C83.7682 50.2609 83.9588 49.9248 84.0525 49.7245C84.1408 49.5454 84.1882 49.3489 84.1914 49.1493C84.1979 49.0987 84.1915 49.0473 84.1728 48.9999C84.1542 48.9525 84.1239 48.9105 84.0848 48.8778C84.044 48.8536 83.9967 48.8425 83.9493 48.846C83.9019 48.8494 83.8568 48.8673 83.8199 48.8972C83.6601 48.9899 83.5386 49.1366 83.4774 49.3108C83.3941 49.5641 83.3537 49.8295 83.3578 50.0961L82.6502 50.4677C82.6369 50.1063 82.6917 49.7457 82.8117 49.4046C82.9138 49.1322 83.0673 48.882 83.2641 48.6678C83.45 48.4793 83.6636 48.3202 83.8974 48.196Z" fill="#4FC87B"/>
<path d="M87.4983 46.1958L87.508 49.9217L88.0153 49.6277L88.0185 50.3451L86.1282 51.4373L86.125 50.7199L86.6582 50.4129L86.6517 47.3979L86.083 47.7243V47.0134L87.4983 46.1958Z" fill="#4FC87B"/>
<path d="M83.7339 58.4681C84.099 58.2548 84.3801 58.2063 84.5998 58.3162C84.7147 58.3888 84.8063 58.4928 84.8635 58.6161C84.9208 58.7393 84.9415 58.8763 84.923 59.0109C84.9235 59.2052 84.893 59.3983 84.8325 59.5829C84.7708 59.7708 84.6896 59.9517 84.5901 60.1226C84.4932 60.2874 84.322 60.5362 84.0764 60.8852C83.8087 61.2354 83.576 61.6109 83.3817 62.0065C83.3027 62.1894 83.2474 62.3816 83.2169 62.5785L84.3413 61.9322V61.3441L84.9585 60.9854L84.9327 62.2941L82.4608 63.7224C82.4516 63.4039 82.4776 63.0852 82.5383 62.7724C82.6005 62.5067 82.6892 62.2479 82.8033 62.0001C82.9596 61.6674 83.1344 61.3438 83.3267 61.0306C83.5365 60.7001 83.7295 60.3593 83.9051 60.0095C83.9948 59.832 84.0424 59.6363 84.0441 59.4375C84.0499 59.386 84.0432 59.3339 84.0247 59.2855C84.0061 59.2372 83.9762 59.194 83.9374 59.1596C83.896 59.1367 83.8487 59.1266 83.8015 59.1307C83.7544 59.1347 83.7094 59.1526 83.6725 59.1822C83.52 59.2783 83.4057 59.4246 83.3494 59.5958C83.2638 59.8487 83.2212 60.1141 83.2233 60.3811L82.5157 60.7527C82.5022 60.3913 82.557 60.0306 82.6773 59.6896C82.7828 59.4199 82.9361 59.1714 83.1296 58.956C83.3056 58.7641 83.5092 58.5996 83.7339 58.4681Z" fill="#4FC87B"/>
<path d="M87.5647 58.4357C88.0139 58.3743 88.24 58.6102 88.24 59.1434C88.24 59.549 88.1209 59.9456 87.8975 60.2842C87.643 60.6773 87.2942 61.0005 86.883 61.2246C86.4371 61.4831 86.0978 61.5477 85.8749 61.4346C85.7574 61.3528 85.665 61.24 85.608 61.1088C85.5509 60.9775 85.5315 60.833 85.5517 60.6913C85.5608 60.4121 85.6258 60.1375 85.7429 59.8838C85.86 59.6301 86.0268 59.4025 86.2335 59.2145C85.8522 59.1887 85.6616 58.9592 85.6616 58.523C85.6668 58.1532 85.779 57.7929 85.9847 57.4856C86.2156 57.138 86.5257 56.85 86.8894 56.6454C87.2869 56.416 87.5938 56.3481 87.8071 56.4353C88.0203 56.5226 88.1302 56.7391 88.1302 57.0817C88.1027 57.5845 87.903 58.0626 87.5647 58.4357ZM87.2739 60.1194C87.3721 59.9401 87.4233 59.7388 87.4226 59.5344C87.4317 59.4574 87.4228 59.3793 87.3964 59.3064C87.3701 59.2334 87.327 59.1677 87.2707 59.1143C87.177 59.0368 87.0478 59.0465 86.8894 59.1402C86.7287 59.238 86.5989 59.3791 86.5146 59.5474C86.417 59.7302 86.367 59.9347 86.3692 60.142C86.3582 60.218 86.3656 60.2956 86.391 60.3682C86.4163 60.4408 86.4587 60.5062 86.5146 60.5589C86.5751 60.5899 86.6433 60.6027 86.711 60.5959C86.7787 60.589 86.8429 60.5627 86.8959 60.5201C87.0573 60.425 87.1884 60.286 87.2739 60.1194ZM86.5534 57.6795C86.4665 57.8389 86.423 58.0183 86.4274 58.1998C86.4208 58.2629 86.4285 58.3267 86.4497 58.3866C86.4709 58.4464 86.5053 58.5007 86.5502 58.5456C86.6342 58.6102 86.744 58.6005 86.8733 58.5197C87.0119 58.4335 87.1238 58.3104 87.1964 58.1642C87.2764 58.0095 87.3175 57.8376 87.3159 57.6634C87.3237 57.5987 87.3173 57.5331 87.2972 57.4712C87.2772 57.4093 87.2438 57.3524 87.1996 57.3046C87.1188 57.2432 87.0058 57.2497 86.8765 57.3305C86.7396 57.4159 86.6281 57.5364 86.5534 57.6795Z" fill="#4FC87B"/>
<path opacity="0.8" d="M13.4885 68.7166L13.4982 72.4489L14.0023 72.1581L14.0055 72.869L12.1152 73.958L12.112 73.2471L12.6452 72.9401L12.6355 69.9251L12.0732 70.2515V69.5341L13.4885 68.7166Z" fill="#111111"/>
<path d="M24.7657 62.1316C25.1309 61.9216 25.412 61.8699 25.6317 61.9797C25.7452 62.0537 25.8356 62.158 25.8927 62.2809C25.9498 62.4037 25.9713 62.5401 25.9548 62.6745C25.9518 62.8709 25.9158 63.0653 25.8482 63.2497C25.7865 63.4365 25.7053 63.6164 25.6058 63.7861C25.5089 63.9499 25.3377 64.2051 25.0921 64.552C24.8216 64.9013 24.5887 65.2783 24.3974 65.6765C24.3178 65.8581 24.2624 66.0493 24.2326 66.2453L25.3603 65.599V65.0206L25.9774 64.6651L25.9483 65.9738L23.4733 67.4021C23.4681 67.0835 23.4952 66.7652 23.5541 66.4521C23.6162 66.1855 23.7072 65.9266 23.8255 65.6798C23.9792 65.347 24.1518 65.0234 24.3425 64.7103C24.5538 64.3791 24.7479 64.0372 24.9241 63.686C25.014 63.5098 25.0616 63.315 25.063 63.1172C25.0688 63.0657 25.0622 63.0136 25.0436 62.9653C25.025 62.9169 24.9951 62.8737 24.9564 62.8393C24.9151 62.8164 24.8681 62.806 24.821 62.8095C24.7739 62.8129 24.7289 62.83 24.6914 62.8587C24.5398 62.9572 24.4259 63.1041 24.3683 63.2756C24.2822 63.5282 24.2407 63.7939 24.2455 64.0608L23.5379 64.4292C23.524 64.0675 23.5799 63.7065 23.7027 63.366C23.8037 63.098 23.9526 62.8505 24.1421 62.6357C24.3229 62.4367 24.5333 62.2667 24.7657 62.1316Z" fill="#4FC87B"/>
<path opacity="0.8" d="M36.7573 55.2045C37.1386 54.9848 37.4326 54.9169 37.6459 55.0042C37.8591 55.0914 37.969 55.3273 37.969 55.6763C37.9542 56.1817 37.7473 56.6624 37.3906 57.0206C37.8688 56.9204 38.1079 57.1369 38.1111 57.6669C38.1083 58.0925 37.9814 58.508 37.746 58.8625C37.5092 59.2312 37.188 59.538 36.809 59.7577C35.9818 60.2359 35.5338 60.0205 35.4648 59.1114L36.2112 58.6105C36.2112 59.1275 36.3922 59.2923 36.725 59.1017C36.8828 59.0038 37.0104 58.8639 37.0933 58.6977C37.183 58.5261 37.2307 58.3356 37.2323 58.1419C37.2403 58.0697 37.2317 57.9966 37.207 57.9283C37.1824 57.8599 37.1424 57.7981 37.0901 57.7477C36.9996 57.6701 36.8575 57.6863 36.6733 57.7929C36.6281 57.822 36.5731 57.8576 36.4988 57.8996V57.1531C36.6954 57.0474 36.8612 56.8927 36.9802 56.7039C37.0731 56.553 37.1243 56.3802 37.1289 56.203C37.1352 56.1492 37.1278 56.0946 37.1075 56.0444C37.0872 55.9941 37.0545 55.9498 37.0126 55.9154C36.9649 55.8912 36.9113 55.8811 36.8581 55.8862C36.8048 55.8914 36.7542 55.9116 36.7121 55.9445C36.5735 56.0304 36.4618 56.1534 36.3898 56.2997C36.3178 56.446 36.2884 56.6096 36.3049 56.7718L35.5747 57.1434C35.587 56.7434 35.7089 56.3544 35.9269 56.0188C36.1334 55.6839 36.4184 55.4044 36.7573 55.2045Z" fill="#111111"/>
<path d="M50.3844 50.6389L50.0096 50.8554V51.4242L50.3327 51.2367V51.8831L48.7818 52.7783V52.1319L49.2083 51.8863V51.3272L47.793 52.1449C47.7409 51.9874 47.6705 51.8366 47.583 51.6956L49.2374 48.0083L49.9967 47.572V50.2575L50.3715 50.041L50.3844 50.6389ZM49.2115 50.71V49.1588L48.2583 51.2626L49.2277 50.71" fill="#4FC87B"/>
<path opacity="0.8" d="M62.3193 40.5251V41.5689L61.7507 41.8921L61.699 41.5948L60.707 42.1668L60.6585 43.2623C60.8241 43.0022 61.0447 42.7816 61.3048 42.6159C61.6796 42.3994 61.9736 42.3671 62.1836 42.5287C62.3003 42.6352 62.3903 42.7675 62.4464 42.9151C62.5026 43.0628 62.5232 43.2215 62.5068 43.3786C62.5087 43.8246 62.3975 44.2637 62.1836 44.655C61.9512 45.086 61.6002 45.4415 61.1723 45.6794C60.7878 45.8992 60.484 45.9606 60.2708 45.8604C60.1507 45.7903 60.0507 45.6905 59.9805 45.5705C59.9103 45.4504 59.8723 45.3143 59.8701 45.1753L60.6036 44.6486C60.6521 45.0493 60.8233 45.1656 61.1141 44.9976C61.2827 44.8997 61.4178 44.7533 61.5019 44.5775C61.592 44.3834 61.6363 44.171 61.6311 43.957C61.6311 43.4303 61.4631 43.2655 61.127 43.4594C60.9095 43.6074 60.747 43.8233 60.665 44.0734H60.0414L60.1512 41.7564L62.3193 40.5251Z" fill="#111111"/>
<path opacity="0.8" d="M74.261 35.5848C74.4646 35.7011 74.568 35.9855 74.5842 36.4315C74.5943 36.8948 74.4829 37.3528 74.261 37.7597C74.0612 38.1262 73.7651 38.4312 73.4048 38.6419C72.933 38.9133 72.5809 38.936 72.3547 38.7033C72.1285 38.4706 72.0057 37.9762 72.0025 37.2071C71.9755 36.5165 72.107 35.8288 72.387 35.197C72.6147 34.7129 72.9829 34.3086 73.4436 34.0369C74.0898 33.6684 74.4485 33.8494 74.5292 34.5927L73.8636 35.0451C73.7861 34.722 73.6374 34.6121 73.4145 34.7413C73.2075 34.8825 73.0583 35.0936 72.9944 35.336C72.8922 35.6645 72.8399 36.0066 72.8393 36.3507C73.0027 36.0657 73.2377 35.8284 73.5211 35.6623C73.6259 35.5836 73.75 35.5349 73.8804 35.5212C74.0107 35.5075 74.1422 35.5295 74.261 35.5848ZM73.6697 37.5722C73.7523 37.3671 73.7909 37.1469 73.7828 36.9259C73.7937 36.8449 73.787 36.7626 73.763 36.6845C73.739 36.6064 73.6984 36.5344 73.6439 36.4735C73.5938 36.4455 73.5368 36.4325 73.4795 36.4359C73.4223 36.4394 73.3672 36.4591 73.3208 36.4929C73.1266 36.6138 72.9603 36.7746 72.8329 36.9647C72.8103 37.2789 72.8647 37.5939 72.9912 37.8825C73.0817 38.0117 73.2142 38.0214 73.3789 37.9277C73.5175 37.8411 73.6241 37.7118 73.6827 37.5593" fill="#111111"/>
<path opacity="0.8" d="M13.7413 80.7311C14.1905 80.6665 14.4166 80.9024 14.4199 81.4421C14.4165 81.8471 14.2977 82.2429 14.0774 82.5828C13.8198 82.9717 13.4716 83.2922 13.0628 83.5167C12.6137 83.7752 12.2809 83.8399 12.0547 83.7267C11.9332 83.6481 11.8367 83.5363 11.7766 83.4047C11.7165 83.273 11.6953 83.1268 11.7154 82.9835C11.7227 82.7044 11.7869 82.4297 11.9041 82.1763C12.0213 81.9229 12.1891 81.6961 12.3972 81.5099C12.0191 81.4776 11.8253 81.2514 11.8253 80.8151C11.8269 80.4469 11.9395 80.0876 12.1484 79.7843C12.376 79.4333 12.6853 79.1427 13.0499 78.9376C13.4473 78.7082 13.7543 78.6403 13.9707 78.7276C14.1872 78.8148 14.2938 79.0313 14.2938 79.3739C14.2727 79.8767 14.0774 80.3566 13.7413 80.7311ZM13.4505 82.4115C13.5501 82.2328 13.6013 82.0312 13.5992 81.8266C13.6077 81.7502 13.5991 81.6728 13.5739 81.6001C13.5488 81.5275 13.5077 81.4613 13.4538 81.4065C13.3536 81.329 13.2276 81.3387 13.0693 81.4291C12.9084 81.5282 12.7786 81.6704 12.6944 81.8395C12.597 82.0226 12.5459 82.2268 12.5458 82.4341C12.535 82.5103 12.5432 82.5879 12.5697 82.6601C12.5962 82.7323 12.6402 82.7967 12.6977 82.8478C12.7554 82.8826 12.8225 82.8986 12.8897 82.8934C12.957 82.8881 13.0208 82.862 13.0725 82.8187C13.2343 82.7212 13.3653 82.5801 13.4505 82.4115ZM12.7332 79.9717C12.6474 80.1314 12.6051 80.3108 12.6104 80.492C12.6028 80.5544 12.6096 80.6178 12.6303 80.6772C12.651 80.7366 12.6851 80.7904 12.73 80.8345C12.8108 80.9024 12.9206 80.8927 13.0531 80.8119C13.1922 80.7263 13.3042 80.603 13.3762 80.4564C13.4572 80.3031 13.4994 80.1322 13.499 79.9588C13.5064 79.8931 13.4992 79.8267 13.478 79.7641C13.4568 79.7016 13.422 79.6445 13.3762 79.5969C13.3019 79.5322 13.1888 79.5419 13.0531 79.6292C12.9162 79.7118 12.8045 79.8303 12.73 79.9717" fill="#111111"/>
<path d="M25.6974 72.1581C25.9269 72.3746 26.0496 72.8949 26.0529 73.7061C26.0529 75.2378 25.58 76.2773 24.6344 76.8246C24.5269 76.9055 24.4018 76.96 24.2693 76.9836C24.1369 77.0072 24.0007 76.9992 23.8719 76.9603C23.6715 76.873 23.5487 76.6371 23.5294 76.2623L24.1756 75.8098C24.2531 76.133 24.4018 76.2461 24.6182 76.133C24.964 75.9359 25.1611 75.3994 25.2031 74.5172C25.0198 74.8003 24.7745 75.0379 24.4858 75.212C24.3813 75.2912 24.2559 75.3383 24.1251 75.3475C23.9943 75.3567 23.8636 75.3275 23.7491 75.2637C23.5487 75.1344 23.4453 74.8533 23.4453 74.4235C23.4433 73.9816 23.5545 73.5466 23.7685 73.1599C23.9732 72.7623 24.2885 72.4324 24.6764 72.2098C25.1288 71.9578 25.4616 71.9416 25.6974 72.1581ZM25.2192 73.8773V73.8289C25.2324 73.5607 25.1838 73.2931 25.0771 73.0468C24.9801 72.8658 24.8412 72.8303 24.6441 72.9434C24.5103 73.0305 24.4083 73.1586 24.3533 73.3086C24.2726 73.4998 24.2308 73.7053 24.2305 73.9129C24.2189 74.0743 24.2622 74.2348 24.3533 74.3685C24.4341 74.4655 24.5569 74.4622 24.7184 74.3685C24.9133 74.2393 25.0803 74.0723 25.2095 73.8773" fill="#4FC87B"/>
<path opacity="0.8" d="M35.5129 66.0967L35.5258 69.8257L36.0266 69.5348L36.0299 70.2457L34.1429 71.3347V70.6238L34.676 70.3168L34.6663 67.2955L34.1009 67.6251L34.0977 66.9142L35.5129 66.0967Z" fill="#111111"/>
<path opacity="0.8" d="M39.1883 64.494C39.4112 64.7622 39.5114 65.2631 39.5114 65.9934C39.5354 66.6412 39.4254 67.287 39.1883 67.8903C38.9964 68.3741 38.6499 68.7808 38.2028 69.0472C37.772 69.2992 37.4424 69.2928 37.214 69.0278C36.9846 68.766 36.8683 68.2684 36.8683 67.5284C36.8494 66.8862 36.9592 66.2467 37.1914 65.6476C37.381 65.1553 37.7318 64.7418 38.1866 64.4746C38.6293 64.2193 38.9589 64.2258 39.1883 64.494ZM38.5679 67.5704C38.6143 67.2167 38.6391 66.8606 38.6422 66.504C38.6543 66.1293 38.6185 65.7547 38.5356 65.3891C38.4677 65.1661 38.3514 65.0983 38.1931 65.1887C38.0974 65.2611 38.0177 65.3524 37.9587 65.4569C37.8998 65.5614 37.863 65.6769 37.8506 65.7963C37.7737 66.1987 37.7401 66.6082 37.7504 67.0178C37.7349 67.3915 37.7708 67.7655 37.857 68.1294C37.9249 68.3556 38.0412 68.417 38.1802 68.3266C38.2968 68.2381 38.3914 68.1238 38.4565 67.9925C38.5215 67.8613 38.5552 67.7168 38.555 67.5704" fill="#111111"/>
<path d="M47.8951 58.8135L47.9048 62.5394L48.4121 62.2486L48.4153 62.9627L46.525 64.055L46.5218 63.3376L47.0549 63.0306L47.0485 60.0156L46.4798 60.3452L46.4766 59.6343L47.8951 58.8135Z" fill="#4FC87B"/>
<path d="M51.0305 57.0015L51.0434 60.7273L51.5442 60.4365L51.5475 61.1539L49.6637 62.2429L49.6605 61.5255L50.1936 61.2185L50.1839 58.2036L49.6185 58.5299L49.6152 57.819L51.0305 57.0015Z" fill="#4FC87B"/>
<path opacity="0.8" d="M59.9744 51.9731L59.9841 55.7024L60.4882 55.4115L60.4914 56.1225L58.6012 57.2147L58.598 56.5038L59.1311 56.1968L59.1214 53.1753L58.556 53.5049L58.5527 52.7907L59.9744 51.9731Z" fill="#111111"/>
<path opacity="0.8" d="M62.6455 50.3579C63.017 50.1414 63.3078 50.0929 63.5179 50.2028C63.6322 50.2759 63.7233 50.3801 63.7805 50.5031C63.8377 50.6262 63.8587 50.763 63.841 50.8975C63.8414 51.0923 63.8086 51.2857 63.7441 51.4695C63.6858 51.6576 63.6067 51.8386 63.5082 52.0092C63.4112 52.174 63.24 52.4228 62.9944 52.7718C62.7253 53.1221 62.4926 53.4989 62.2997 53.8964C62.2187 54.0788 62.1622 54.2711 62.1317 54.4683L63.2594 53.8221V53.2436L63.8765 52.8881L63.8475 54.1969L61.3724 55.6252C61.3648 55.3067 61.3908 54.9883 61.4499 54.6752C61.5128 54.4128 61.6016 54.1574 61.7149 53.9125C61.8717 53.5802 62.0464 53.2565 62.2383 52.9431C62.5324 52.4584 62.7262 52.1223 62.8199 51.9187C62.9057 51.7411 62.952 51.5471 62.9556 51.35C62.9618 51.2987 62.9557 51.2468 62.9377 51.1984C62.9197 51.1501 62.8904 51.1068 62.8522 51.072C62.8112 51.0483 62.764 51.0374 62.7168 51.0409C62.6695 51.0443 62.6244 51.062 62.5873 51.0914C62.4296 51.1872 62.3097 51.3344 62.248 51.5083C62.1622 51.7611 62.1196 52.0266 62.122 52.2936L61.4111 52.6652C61.4001 52.3023 61.4571 51.9406 61.5792 51.5988C61.6848 51.3301 61.838 51.0827 62.0315 50.8685C62.2083 50.6673 62.4154 50.495 62.6455 50.3579Z" fill="#111111"/>
<path opacity="0.8" d="M72.0295 45.0134L72.0392 48.7425L72.5433 48.4517L72.5465 49.1626L70.6595 50.2516L70.6563 49.5406L71.1894 49.2337L71.183 46.2123L70.6143 46.5419V45.831L72.0295 45.0134Z" fill="#111111"/>
<path opacity="0.8" d="M74.6385 43.4299C74.763 43.3336 74.907 43.2655 75.0604 43.2303C75.2138 43.1951 75.3731 43.1938 75.5271 43.2263C75.7371 43.3135 75.8502 43.5495 75.8502 43.9017C75.8381 44.4064 75.6335 44.8873 75.2783 45.246C75.7565 45.1458 75.9956 45.3624 75.9988 45.8923C75.9964 46.3185 75.8682 46.7344 75.6305 47.088C75.3927 47.4587 75.0705 47.7676 74.6902 47.9896C73.8631 48.4679 73.4204 48.2482 73.3525 47.3433L74.0989 46.8424C74.0989 47.3562 74.2799 47.5178 74.6094 47.3304C74.7678 47.2356 74.8948 47.0962 74.9746 46.9297C75.0693 46.7573 75.1193 46.564 75.12 46.3674C75.1272 46.2957 75.1182 46.2233 75.0936 46.1556C75.069 46.0879 75.0294 46.0266 74.9778 45.9764C74.8809 45.9053 74.7452 45.9182 74.5577 46.0281C74.5157 46.0539 74.4608 46.083 74.3865 46.1315V45.3818C74.5831 45.2761 74.7489 45.1214 74.8679 44.9326C74.9618 44.7811 75.0121 44.6067 75.0133 44.4284C75.0202 44.3741 75.0131 44.3189 74.9928 44.268C74.9724 44.2171 74.9395 44.1722 74.897 44.1376C74.8488 44.1164 74.7958 44.1084 74.7435 44.1147C74.6912 44.121 74.6416 44.1411 74.5998 44.1731C74.4608 44.259 74.3484 44.3818 74.2754 44.528C74.2023 44.6741 74.1714 44.8377 74.1862 45.0004L73.4656 45.3527C73.478 44.9526 73.5998 44.5637 73.8178 44.2281C74.0218 43.8987 74.3037 43.6246 74.6385 43.4299Z" fill="#111111"/>
<path opacity="0.8" d="M11.8137 89.8711L11.8234 93.5972L12.3306 93.3063L12.3339 94.0205L10.4437 95.1128L10.4404 94.3954L10.9768 94.0884L10.9671 91.0733L10.3984 91.3996V90.6887L11.8137 89.8711Z" fill="#111111"/>
<path opacity="0.8" d="M15.5859 87.6936V88.7406L15.0237 89.0638L14.9656 88.7632L13.9736 89.3384L13.9284 90.4242C14.0942 90.1643 14.3147 89.9438 14.5746 89.7779C14.9526 89.5582 15.2434 89.5323 15.4535 89.6939C15.5699 89.8005 15.6598 89.9329 15.7159 90.0805C15.772 90.2281 15.7928 90.3867 15.7766 90.5438C15.7788 90.9887 15.6676 91.4269 15.4535 91.817C15.2239 92.2482 14.8736 92.6031 14.4453 92.8381C14.0576 93.0611 13.7539 93.1257 13.5406 93.0223C13.4236 92.955 13.3253 92.8593 13.2547 92.7442C13.1841 92.629 13.1436 92.498 13.1367 92.3631L13.867 91.8428C13.9187 92.2403 14.0867 92.3534 14.3807 92.1854C14.5471 92.0887 14.6809 91.9447 14.7652 91.7717C14.8551 91.5764 14.8993 91.3631 14.8945 91.1481C14.8945 90.6213 14.7264 90.4533 14.3904 90.6472C14.1744 90.7968 14.0123 91.0121 13.9284 91.2612H13.3112L13.4146 88.9442L15.5859 87.6936Z" fill="#111111"/>
<path opacity="0.8" d="M23.4917 83.2087L23.5014 86.9347L24.0087 86.6439L24.0119 87.3548L22.1217 88.4439L22.1185 87.7329L22.6516 87.4259L22.6419 84.4109L22.0765 84.7373L22.0732 84.0263L23.4917 83.2087Z" fill="#111111"/>
<path opacity="0.8" d="M27.1839 83.0281C27.3907 83.1444 27.507 83.4288 27.507 83.8748C27.5173 84.3371 27.4059 84.794 27.1839 85.1997C26.9826 85.5681 26.6842 85.8744 26.3212 86.0851C25.8526 86.3566 25.5037 86.376 25.271 86.1498C25.0384 85.9236 24.9285 85.4162 24.9253 84.6471C24.8946 83.9566 25.0251 83.2684 25.3066 82.6371C25.5351 82.1554 25.9018 81.7527 26.3599 81.4802C27.0062 81.1075 27.3681 81.2927 27.4456 82.036L26.7994 82.4884C26.7154 82.1653 26.5667 82.0554 26.3438 82.1846C26.1384 82.3268 25.9905 82.5377 25.927 82.7793C25.8219 83.106 25.7695 83.4475 25.7719 83.7907C25.9363 83.5082 26.1712 83.2733 26.4536 83.1089C26.5569 83.0311 26.6792 82.9826 26.8077 82.9684C26.9362 82.9542 27.0661 82.9748 27.1839 83.0281ZM26.5958 85.0187C26.6793 84.8138 26.7178 84.5935 26.7089 84.3724C26.7089 84.143 26.6669 83.9911 26.57 83.9232C26.522 83.8917 26.4658 83.8749 26.4084 83.8749C26.351 83.8749 26.2948 83.8917 26.2468 83.9232C26.0556 84.0443 25.8916 84.2039 25.7654 84.3918C25.7413 84.7065 25.7934 85.0225 25.9173 85.3128C26.011 85.4388 26.1402 85.455 26.3115 85.3548C26.4464 85.2687 26.5504 85.1419 26.6087 84.9929" fill="#111111"/>
<path d="M35.59 76.2039L35.5997 79.9299L36.107 79.639L36.1102 80.35L34.22 81.439L34.2168 80.7281L34.7499 80.421L34.7435 77.406L34.1748 77.7324V77.0247L35.59 76.2039Z" fill="#4FC87B"/>
<path d="M39.4964 73.9453V74.4914C39.2405 75.0498 39.0444 75.6336 38.9115 76.2332C38.7342 76.865 38.6354 77.5162 38.6175 78.1721L39.1086 77.8878V78.5987L37.2443 79.6748V78.9639L37.7289 78.6827C37.7737 78.0933 37.8821 77.5104 38.0521 76.9442C38.2166 76.3082 38.4327 75.6868 38.6983 75.086L37.7063 75.658V76.2817L37.0859 76.6372V75.3252L39.4964 73.9453Z" fill="#4FC87B"/>
<path opacity="0.8" d="M47.7248 69.0789L47.7345 72.8113L48.2418 72.5172L48.2451 73.2282L46.3548 74.3205L46.3516 73.6095L46.8847 73.3025L46.8783 70.281L46.3096 70.6074V69.8964L47.7248 69.0789Z" fill="#111111"/>
<path opacity="0.8" d="M51.0948 69.2443C51.5439 69.1829 51.7668 69.422 51.7701 69.9552C51.7685 70.3606 51.6496 70.7568 51.4276 71.096C51.1712 71.4876 50.8229 71.8105 50.413 72.0364C49.9671 72.2917 49.6311 72.3596 49.4049 72.2465C49.2877 72.1645 49.1955 72.0516 49.1385 71.9204C49.0815 71.7893 49.0619 71.6449 49.0818 71.5032C49.09 71.2233 49.1546 70.948 49.2718 70.6936C49.3889 70.4393 49.5562 70.2112 49.7635 70.0231C49.3855 69.9972 49.1916 69.771 49.1884 69.3347C49.1923 68.9648 49.3046 68.6041 49.5115 68.2974C49.7427 67.9479 50.054 67.6587 50.4195 67.4539C50.8137 67.2277 51.1174 67.1534 51.3306 67.2471C51.4459 67.3068 51.5393 67.4015 51.5973 67.5177C51.6554 67.6338 51.6751 67.7654 51.6537 67.8934C51.6304 68.3951 51.4327 68.8729 51.0948 69.2443ZM50.8007 70.9312C50.9014 70.7529 50.9527 70.551 50.9494 70.3463C50.9588 70.2698 50.9507 70.1921 50.9255 70.1193C50.9003 70.0465 50.8587 69.9804 50.804 69.9261C50.7463 69.8889 50.6782 69.871 50.6096 69.8751C50.5411 69.8791 50.4756 69.905 50.4227 69.9488C50.2602 70.0469 50.1291 70.1892 50.0446 70.3592C49.9472 70.5422 49.8961 70.7464 49.896 70.9538C49.8846 71.03 49.8925 71.1078 49.9191 71.1801C49.9456 71.2524 49.9899 71.3168 50.0479 71.3675C50.1448 71.4353 50.2676 71.4224 50.4259 71.3319C50.5868 71.2372 50.717 71.0981 50.8007 70.9312ZM50.0802 68.488C49.9911 68.6467 49.9464 68.8264 49.9509 69.0083C49.9453 69.0717 49.9536 69.1355 49.9754 69.1953C49.9972 69.2551 50.0318 69.3093 50.077 69.3541C50.1577 69.4188 50.2708 69.4091 50.4001 69.3283C50.5392 69.2442 50.6514 69.1219 50.7232 68.976C50.8039 68.8214 50.846 68.6495 50.846 68.4751C50.855 68.4099 50.8487 68.3434 50.8273 68.2811C50.806 68.2188 50.7703 68.1624 50.7232 68.1164C50.6456 68.0485 50.5358 68.0582 50.4001 68.1423C50.2624 68.2253 50.1505 68.345 50.077 68.488" fill="#111111"/>
<path d="M59.968 62.1482L59.9777 65.8739L60.4882 65.5831V66.2908L58.598 67.3829V66.6721L59.1311 66.3651L59.1214 63.3502L58.5527 63.6766V62.9657L59.968 62.1482Z" fill="#4FC87B"/>
<path d="M63.5718 60.5195C63.8077 60.7392 63.924 61.2563 63.9272 62.0674C63.9272 63.5991 63.4555 64.6375 62.512 65.1826C62.4041 65.2639 62.2786 65.3188 62.1456 65.343C62.0126 65.3671 61.8759 65.3598 61.7462 65.3216C61.5459 65.2343 61.4231 64.9984 61.4231 64.6235L62.0693 64.1744C62.1501 64.4975 62.2955 64.6074 62.512 64.4975C62.8577 64.3004 63.0548 63.7639 63.1001 62.8817C62.9175 63.1636 62.6719 63.3993 62.3828 63.5701C62.2793 63.6502 62.1544 63.6978 62.0239 63.707C61.8933 63.7162 61.763 63.6866 61.6493 63.6218C61.4425 63.4957 61.3262 63.2146 61.3262 62.7848C61.3251 62.343 61.4363 61.9083 61.6493 61.5213C61.8526 61.1166 62.1692 60.7798 62.5605 60.5518C63.0064 60.3191 63.3295 60.303 63.5718 60.5195ZM63.0936 62.2419V62.1966C63.1082 61.9266 63.0607 61.6569 62.9547 61.4082C62.861 61.2272 62.7156 61.1916 62.5217 61.3047C62.3857 61.3917 62.2823 61.5212 62.2277 61.6731C62.1526 61.8634 62.1153 62.0665 62.1178 62.271C62.1051 62.4325 62.1485 62.5934 62.2406 62.7266C62.3214 62.8236 62.4409 62.8236 62.6089 62.7266C62.8009 62.5987 62.9657 62.4339 63.0936 62.2419Z" fill="#4FC87B"/>
<path opacity="0.8" d="M71.729 55.3339C72.1006 55.1207 72.3914 55.069 72.5982 55.1788C72.7114 55.2531 72.8016 55.3575 72.8587 55.4802C72.9158 55.603 72.9374 55.7392 72.9213 55.8736C72.9196 56.0703 72.8869 56.2655 72.8244 56.4521C72.763 56.6375 72.6829 56.8161 72.5853 56.9853C72.4883 57.1501 72.3171 57.4021 72.0715 57.7511C71.8022 58.102 71.5684 58.4787 71.3736 58.8757C71.2943 59.0585 71.2389 59.2507 71.2088 59.4477L72.3397 58.8014V58.2229L72.9601 57.8642L72.9278 59.1568L70.4559 60.5852C70.4466 60.2677 70.4726 59.9501 70.5335 59.6383C70.5953 59.3711 70.6852 59.1111 70.8017 58.8628C70.958 58.5307 71.1316 58.2071 71.3219 57.8933C71.5342 57.5643 71.7273 57.2234 71.9003 56.8722C71.9901 56.6946 72.0387 56.4991 72.0424 56.3002C72.0486 56.249 72.0425 56.197 72.0245 56.1487C72.0065 56.1003 71.9772 56.057 71.939 56.0223C71.8975 56.0001 71.8506 55.9902 71.8038 55.9936C71.7569 55.9971 71.7119 56.0137 71.6741 56.0417C71.5137 56.1366 71.3923 56.2855 71.3316 56.4618C71.2492 56.7143 71.2066 56.9781 71.2056 57.2438L70.498 57.6154C70.4857 57.2538 70.5416 56.8931 70.6627 56.5522C70.7679 56.2823 70.9211 56.0338 71.1151 55.8187C71.294 55.6269 71.501 55.4634 71.729 55.3339Z" fill="#111111"/>
<path opacity="0.8" d="M75.8805 53.5371C76.1034 53.8053 76.2036 54.3062 76.2036 55.0366C76.2272 55.6854 76.1172 56.3322 75.8805 56.9367C75.6903 57.4166 75.3503 57.8224 74.9111 58.0936C74.4782 58.3424 74.1453 58.3359 73.9192 58.0742C73.693 57.8124 73.5767 57.3116 73.5734 56.5715C73.5542 55.9304 73.6641 55.2919 73.8965 54.694C74.0892 54.2017 74.4405 53.7878 74.895 53.5177C75.3247 53.2657 75.6575 53.2657 75.8805 53.5371ZM75.2601 56.6168C75.3106 56.2614 75.3365 55.9029 75.3376 55.5439C75.3525 55.1711 75.3155 54.7981 75.2278 54.4355C75.1599 54.2093 75.0436 54.1447 74.8853 54.2351C74.7901 54.3073 74.7107 54.3981 74.6518 54.502C74.5929 54.6059 74.5558 54.7207 74.5428 54.8394C74.4677 55.2443 74.4341 55.6557 74.4426 56.0674C74.4306 56.4399 74.4664 56.8124 74.5492 57.1758C74.6236 57.3988 74.7334 57.4667 74.8885 57.3762C75.0038 57.2859 75.0971 57.1707 75.1614 57.0391C75.2258 56.9076 75.2595 56.7632 75.2601 56.6168Z" fill="#111111"/>
<path opacity="0.8" d="M11.5823 100.16C11.9539 99.9466 12.2286 99.8916 12.4547 100.005C12.5687 100.078 12.6596 100.182 12.7168 100.305C12.774 100.428 12.7952 100.565 12.7778 100.7C12.7782 100.894 12.7454 101.088 12.6809 101.272C12.6231 101.46 12.544 101.641 12.445 101.811C12.3481 101.976 12.1769 102.228 11.9313 102.571C11.6622 102.924 11.4284 103.303 11.2334 103.702C11.154 103.884 11.0986 104.077 11.0686 104.274L12.1962 103.627V103.049L12.8134 102.69L12.7778 103.996L10.3028 105.424C10.296 105.106 10.323 104.789 10.3836 104.477C10.4447 104.21 10.5335 103.95 10.6485 103.702C10.7778 103.428 10.9522 103.105 11.172 102.732C11.3816 102.409 11.5746 102.076 11.7503 101.734C11.8389 101.555 11.8864 101.358 11.8893 101.158C11.8949 101.108 11.8885 101.056 11.8706 101.009C11.8526 100.961 11.8236 100.918 11.7859 100.884C11.7446 100.861 11.6976 100.85 11.6505 100.854C11.6034 100.857 11.5584 100.874 11.5209 100.903C11.37 101.001 11.2563 101.147 11.1978 101.317C11.1126 101.572 11.07 101.839 11.0718 102.108L10.3383 102.461C10.3276 102.099 10.3835 101.739 10.5031 101.398C10.6086 101.126 10.763 100.876 10.9587 100.661C11.1407 100.464 11.3508 100.295 11.5823 100.16Z" fill="#111111"/>
<path opacity="0.8" d="M14.7214 98.3469C15.0898 98.1368 15.3676 98.0819 15.5938 98.1918C15.7076 98.2663 15.7981 98.3712 15.8552 98.4945C15.9123 98.6179 15.9337 98.7549 15.9169 98.8898C15.9204 99.0872 15.8909 99.2838 15.8297 99.4715C15.772 99.6619 15.6906 99.8443 15.5874 100.014C15.4937 100.176 15.3192 100.431 15.0768 100.771C14.8078 101.124 14.574 101.503 14.3789 101.902C14.3011 102.085 14.2458 102.277 14.2141 102.474L15.3418 101.827V101.249L15.9654 100.89L15.9363 102.199L13.4613 103.627C13.4536 103.31 13.4796 102.992 13.5388 102.68C13.6021 102.414 13.692 102.154 13.807 101.905C13.9613 101.571 14.1361 101.247 14.3305 100.935C14.6213 100.454 14.8151 100.118 14.9088 99.9142C14.9974 99.7352 15.0449 99.5387 15.0478 99.339C15.0544 99.2881 15.0478 99.2364 15.0286 99.1888C15.0093 99.1412 14.9781 99.0994 14.9379 99.0675C14.8969 99.0438 14.8497 99.0329 14.8024 99.0364C14.7552 99.0398 14.7101 99.0574 14.673 99.0869C14.5228 99.1842 14.4091 99.3285 14.3498 99.4973C14.2678 99.7533 14.2253 100.02 14.2238 100.289L13.5162 100.657C13.5055 100.296 13.5614 99.9356 13.681 99.5943C13.7854 99.3238 13.9376 99.0742 14.1301 98.8575C14.3025 98.6606 14.5015 98.4888 14.7214 98.3469Z" fill="#111111"/>
<path d="M23.2626 93.5001C23.6309 93.2868 23.9088 93.2384 24.1285 93.3515C24.2428 93.4238 24.334 93.5274 24.3913 93.6499C24.4486 93.7725 24.4695 93.9089 24.4516 94.043C24.4516 94.2385 24.4199 94.4328 24.3579 94.6182C24.2976 94.8056 24.2163 94.9855 24.1156 95.1546C24.0187 95.3195 23.8474 95.5747 23.6018 95.9173C23.3335 96.2693 23.1008 96.647 22.9071 97.0451C22.8276 97.2255 22.7722 97.4156 22.7424 97.6106L23.87 96.9643V96.3858L24.4936 96.0271L24.4646 97.3359L21.9701 98.761C21.9623 98.4446 21.9883 98.1282 22.0477 97.8174C22.1104 97.5494 22.2003 97.2884 22.3158 97.0386C22.4716 96.7057 22.6463 96.382 22.8393 96.0692C23.1301 95.5909 23.324 95.2484 23.4177 95.0545C23.5053 94.874 23.5527 94.6766 23.5566 94.476C23.5639 94.4246 23.5575 94.3722 23.5383 94.3241C23.519 94.2759 23.4874 94.2336 23.4467 94.2014C23.4057 94.1776 23.3585 94.1667 23.3113 94.1702C23.264 94.1737 23.2189 94.1913 23.1818 94.2207C23.03 94.3177 22.916 94.4636 22.8587 94.6344C22.7748 94.8899 22.7322 95.1572 22.7327 95.4261L22.025 95.7945C22.0144 95.4319 22.0703 95.0705 22.1898 94.7281C22.2873 94.4641 22.4318 94.2199 22.6163 94.0075C22.8036 93.8053 23.0217 93.634 23.2626 93.5001Z" fill="#4FC87B"/>
<path d="M26.3254 91.7163C26.7066 91.4998 27.0007 91.4319 27.2107 91.5224C27.4207 91.6129 27.5338 91.8456 27.5338 92.1914C27.5237 92.6965 27.3188 93.1782 26.9619 93.5357C27.4401 93.442 27.6792 93.6553 27.6824 94.1821C27.6809 94.6103 27.5527 95.0286 27.3141 95.3842C27.077 95.7537 26.7545 96.0607 26.3738 96.2794C25.5467 96.7544 25.104 96.5412 25.0361 95.6331L25.7825 95.1289C25.7825 95.6492 25.9635 95.8108 26.293 95.6201C26.4508 95.5231 26.5775 95.383 26.6582 95.2162C26.7497 95.0452 26.7974 94.8543 26.7971 94.6603C26.806 94.5881 26.7984 94.5149 26.7749 94.446C26.7514 94.3772 26.7126 94.3145 26.6614 94.2628C26.5645 94.1918 26.4287 94.2047 26.2413 94.3146C26.1993 94.3372 26.1379 94.3792 26.0701 94.4212V93.6715C26.2656 93.5696 26.4297 93.4166 26.5451 93.2287C26.6412 93.0779 26.6938 92.9034 26.6969 92.7246C26.7042 92.6705 26.6976 92.6155 26.6778 92.5646C26.658 92.5137 26.6257 92.4687 26.5838 92.4337C26.5355 92.4108 26.4816 92.4019 26.4285 92.4082C26.3753 92.4145 26.325 92.4357 26.2833 92.4693C26.1443 92.5535 26.0318 92.6751 25.9587 92.8203C25.8856 92.9655 25.8547 93.1283 25.8698 93.2901L25.1428 93.6553C25.1549 93.2557 25.2756 92.867 25.4917 92.5307C25.7015 92.1973 25.9872 91.9182 26.3254 91.7163Z" fill="#4FC87B"/>
<path opacity="0.8" d="M35.2733 86.4817C35.6384 86.2716 35.9195 86.2167 36.1393 86.3298C36.2527 86.4038 36.3432 86.5081 36.4003 86.631C36.4574 86.7538 36.4789 86.8902 36.4624 87.0246C36.4596 87.2191 36.4269 87.412 36.3654 87.5966C36.3061 87.7848 36.2259 87.9659 36.1263 88.1363C36.0294 88.3011 35.8582 88.5532 35.6126 88.8957C35.344 89.2475 35.1112 89.6254 34.9179 90.0236C34.8375 90.2059 34.782 90.3983 34.7531 90.5955L35.8808 89.9492V89.3708L36.5012 89.0121L36.4688 90.3209L33.9938 91.7492C33.9886 91.4317 34.0157 91.1144 34.0746 90.8024C34.1361 90.5346 34.2272 90.2745 34.346 90.0268C34.499 89.6937 34.6716 89.37 34.863 89.0573C35.157 88.5758 35.3509 88.2365 35.4446 88.0361C35.5343 87.8564 35.5819 87.6585 35.5835 87.4577C35.5883 87.4072 35.5811 87.3564 35.5626 87.3092C35.544 87.2621 35.5147 87.2199 35.4769 87.1862C35.4356 87.1633 35.3886 87.1529 35.3415 87.1563C35.2944 87.1598 35.2494 87.1769 35.2119 87.2056C35.061 87.3035 34.9473 87.4491 34.8888 87.6192C34.8036 87.8732 34.7621 88.1399 34.766 88.4077L34.0584 88.7761C34.0458 88.4156 34.1017 88.0559 34.2232 87.7162C34.3256 87.4447 34.4779 87.1948 34.6723 86.9794C34.8476 86.7853 35.05 86.6177 35.2733 86.4817Z" fill="#111111"/>
<path opacity="0.8" d="M39.7608 87.1934L39.386 87.4099V87.9819L39.7091 87.7945V88.4407L38.1581 89.3358V88.6896L38.5911 88.4407V87.8688L37.1726 88.6896C37.1167 88.5331 37.0475 88.3818 36.9658 88.2372L38.617 84.5598L39.3763 84.1204V86.8057L39.7511 86.5892L39.7608 87.1934ZM38.5911 87.2645V85.7167L37.6218 87.8203L38.5911 87.2645Z" fill="#111111"/>
<path opacity="0.8" d="M47.4956 79.3638C47.8607 79.1505 48.1418 79.1021 48.3615 79.2119C48.4755 79.2854 48.5664 79.3896 48.6236 79.5126C48.6808 79.6356 48.7019 79.7722 48.6846 79.9068C48.684 80.1012 48.6524 80.2943 48.5909 80.4788C48.5292 80.6667 48.448 80.8475 48.3486 81.0185C48.2549 81.18 48.0804 81.4321 47.8381 81.7779C47.5702 82.1297 47.3365 82.5063 47.1401 82.9025C47.0612 83.0855 47.0058 83.2777 46.9753 83.4745L48.103 82.8282V82.2497L48.7266 81.891L48.6975 83.1837L46.2225 84.6121C46.2133 84.2935 46.2394 83.9749 46.3 83.662C46.3634 83.3962 46.4532 83.1374 46.5682 82.8896C46.7232 82.5563 46.898 82.2326 47.0917 81.9201C47.3825 81.4418 47.5763 81.0993 47.67 80.8989C47.7567 80.7204 47.8041 80.5253 47.809 80.3269C47.8144 80.2751 47.8072 80.2228 47.7881 80.1744C47.769 80.1261 47.7384 80.083 47.6991 80.049C47.6577 80.0261 47.6104 80.016 47.5632 80.02C47.516 80.0241 47.4711 80.042 47.4342 80.0716C47.2824 80.1685 47.1684 80.3145 47.111 80.4852C47.0283 80.7388 46.9858 81.0038 46.985 81.2705L46.2774 81.6422C46.2664 81.2806 46.3223 80.9202 46.4422 80.5789C46.5459 80.3091 46.6981 80.0604 46.8913 79.8454C47.0682 79.6562 47.2718 79.494 47.4956 79.3638Z" fill="#111111"/>
<path opacity="0.8" d="M51.7374 76.9919V78.0357L51.1719 78.3589L51.1202 78.0616L50.1283 78.6336L50.0733 79.7291C50.2465 79.4807 50.47 79.2715 50.7293 79.1151C51.1041 78.8986 51.3981 78.8662 51.6081 79.0278C51.7242 79.1347 51.8138 79.2672 51.8698 79.4147C51.9259 79.5622 51.9469 79.7207 51.9312 79.8777C51.9364 80.3292 51.8251 80.7744 51.6081 81.1703C51.3763 81.6002 51.0251 81.9537 50.5968 82.1883C50.209 82.4145 49.9118 82.4727 49.6985 82.3692C49.5776 82.301 49.4769 82.2019 49.4065 82.0822C49.3362 81.9625 49.2987 81.8263 49.2979 81.6874L50.0281 81.1639C50.0798 81.5614 50.251 81.6777 50.5418 81.5097C50.7075 81.4116 50.8402 81.2665 50.9231 81.0928C51.0167 80.8984 51.0632 80.6848 51.0588 80.4691C51.0588 79.9391 50.8908 79.7775 50.5548 79.9714C50.3353 80.1196 50.1715 80.3368 50.0895 80.5887H49.4691L49.579 78.2749L51.7374 76.9919Z" fill="#111111"/>
<path opacity="0.8" d="M59.6863 72.4618C60.0514 72.2485 60.3325 72.2 60.5523 72.3131C60.666 72.386 60.7568 72.4897 60.814 72.6121C60.8711 72.7345 60.8925 72.8707 60.8754 73.0047C60.8778 73.1991 60.8473 73.3925 60.7849 73.5767C60.7232 73.7646 60.642 73.9455 60.5426 74.1164C60.4456 74.2812 60.2744 74.5365 60.0288 74.879C59.7581 75.2294 59.5252 75.6074 59.3341 76.0068C59.2546 76.1873 59.1992 76.3774 59.1693 76.5724L60.297 75.9261V75.3476L60.9142 74.9889L60.8851 76.2977L58.41 77.7293C58.4039 77.4116 58.432 77.0941 58.494 76.7824C58.5529 76.5133 58.6429 76.2519 58.7622 76.0036C58.9173 75.6716 59.0899 75.3479 59.2792 75.0341C59.5732 74.5559 59.7671 74.2101 59.8608 74.013C59.9502 73.8343 59.9977 73.6375 59.9997 73.4377C60.0055 73.3863 59.9989 73.3341 59.9803 73.2858C59.9618 73.2374 59.9319 73.1942 59.8931 73.1598C59.8517 73.1369 59.8044 73.1269 59.7572 73.1309C59.71 73.1349 59.6651 73.1529 59.6282 73.1824C59.4697 73.2774 59.3497 73.4249 59.2889 73.5993C59.2028 73.8531 59.1613 74.1199 59.1661 74.3878L58.4585 74.7562C58.4443 74.3935 58.5002 74.0314 58.6233 73.6898C58.7257 73.4273 58.8745 73.1854 59.0627 72.9756C59.2426 72.773 59.453 72.5996 59.6863 72.4618Z" fill="#111111"/>
<path opacity="0.8" d="M63.8388 72.0907C64.0413 72.207 64.149 72.4914 64.1619 72.9437C64.1726 73.4041 64.0612 73.859 63.8388 74.2622C63.6399 74.6312 63.3423 74.9378 62.9793 75.1476C62.5108 75.419 62.1586 75.4384 61.9292 75.2154C61.6998 74.9924 61.5835 74.4851 61.5835 73.7096C61.5528 73.0201 61.6833 72.333 61.9648 71.7029C62.1914 71.22 62.5586 70.8168 63.0181 70.5461C63.6643 70.1712 64.0198 70.3586 64.1038 71.1019L63.4575 71.551C63.38 71.2279 63.2249 71.1212 63.002 71.2473C62.7957 71.3886 62.6476 71.5998 62.5851 71.8418C62.4811 72.1711 62.4287 72.5145 62.43 72.8597C62.5934 72.5748 62.8284 72.3375 63.1118 72.1714C63.215 72.0949 63.3367 72.0471 63.4644 72.033C63.5921 72.0188 63.7213 72.0387 63.8388 72.0907ZM63.2508 74.0812C63.331 73.8811 63.3695 73.6666 63.3638 73.4511C63.3638 73.2152 63.3186 73.0633 63.2249 72.9987C63.1756 72.9687 63.1185 72.9541 63.0609 72.957C63.0032 72.9599 62.9478 72.98 62.9018 73.0148C62.7091 73.1341 62.5448 73.294 62.4204 73.4834C62.3973 73.7991 62.4493 74.1158 62.5722 74.4076C62.6659 74.5304 62.7952 74.5465 62.9632 74.4496C63.1015 74.3635 63.2072 74.2339 63.2637 74.0812" fill="#111111"/>
<path d="M71.8204 65.5149C72.1855 65.3017 72.4666 65.2532 72.6863 65.3631C72.8003 65.4365 72.8912 65.5407 72.9484 65.6637C73.0056 65.7867 73.0267 65.9233 73.0094 66.0578C73.01 66.2532 72.9795 66.4473 72.9189 66.6331C72.8573 66.8199 72.776 66.9997 72.6766 67.1695C72.5797 67.3343 72.4084 67.5896 72.1629 67.9321C71.8928 68.283 71.66 68.6609 71.4682 69.0599C71.3885 69.2415 71.3331 69.4327 71.3034 69.6287L72.4278 68.9824V68.4039L73.045 68.0485L73.0159 69.3572L70.5408 70.7856C70.5349 70.4668 70.563 70.1483 70.6248 69.8355C70.683 69.5676 70.7719 69.3074 70.8898 69.0599C71.0454 68.7276 71.2191 68.4039 71.41 68.0905C71.6213 67.7592 71.8155 67.4173 71.9916 67.0661C72.0805 66.8884 72.128 66.6928 72.1305 66.4941C72.1358 66.4431 72.1289 66.3917 72.1104 66.3439C72.0918 66.2961 72.0622 66.2535 72.0239 66.2194C71.9829 66.1957 71.9357 66.1848 71.8885 66.1883C71.8412 66.1917 71.7961 66.2093 71.759 66.2388C71.6073 66.3373 71.4934 66.4842 71.4358 66.6557C71.35 66.9073 71.3084 67.1719 71.3131 67.4377L70.5828 67.8061C70.5696 67.4447 70.6244 67.0841 70.7444 66.7429C70.85 66.4742 71.0032 66.2268 71.1967 66.0126C71.3772 65.815 71.5876 65.647 71.8204 65.5149Z" fill="#4FC87B"/>
<path d="M76.1898 63.0659V63.6056C75.9363 64.1648 75.7403 64.7484 75.605 65.3473C75.4303 65.9796 75.3316 66.6305 75.3109 67.2862L75.8021 67.005V67.716L73.9377 68.792V68.0811L74.4256 67.8C74.4694 67.2104 74.5777 66.6274 74.7487 66.0615C74.9122 65.4252 75.1283 64.8037 75.3949 64.2034L74.4062 64.7753V65.3958L73.7891 65.7545V64.4361L76.1898 63.0659Z" fill="#4FC87B"/>
<path d="M11.5816 110.27C11.9532 110.057 12.2279 110.008 12.454 110.121C12.567 110.194 12.6572 110.297 12.7143 110.419C12.7714 110.541 12.7932 110.676 12.7772 110.81C12.776 111.006 12.7432 111.202 12.6802 111.388C12.6186 111.575 12.5373 111.755 12.4379 111.924C12.3442 112.086 12.1697 112.345 11.9274 112.687C11.6571 113.038 11.4233 113.416 11.2294 113.815C11.1498 113.996 11.0944 114.188 11.0646 114.384L12.1956 113.737V113.159L12.8127 112.8L12.7836 114.093L10.3085 115.521C10.2991 115.205 10.3251 114.888 10.3861 114.578C10.4484 114.311 10.5383 114.053 10.6543 113.805C10.8099 113.472 10.9847 113.149 11.1777 112.836C11.4685 112.357 11.6624 112.018 11.7561 111.821C11.8429 111.641 11.8903 111.445 11.8951 111.246C11.9005 111.194 11.8933 111.142 11.8742 111.093C11.855 111.045 11.8245 111.002 11.7852 110.968C11.7454 110.945 11.6995 110.934 11.6535 110.937C11.6075 110.94 11.5633 110.956 11.5267 110.984C11.3606 111.085 11.2366 111.242 11.1777 111.427C11.0951 111.681 11.0526 111.948 11.0517 112.215L10.3376 112.574C10.3264 112.213 10.3822 111.854 10.5024 111.514C10.6076 111.243 10.7621 110.995 10.958 110.78C11.1389 110.58 11.3491 110.408 11.5816 110.27Z" fill="#4FC87B"/>
<path d="M15.6483 108.454C15.8777 108.673 16.0005 109.187 16.0005 110.002C16.0005 111.531 15.5277 112.57 14.582 113.117C14.4753 113.198 14.3509 113.253 14.219 113.277C14.087 113.301 13.9513 113.294 13.8227 113.256C13.6224 113.172 13.4996 112.933 13.4996 112.558L14.1458 112.105C14.2234 112.429 14.3752 112.545 14.5917 112.429C14.9375 112.228 15.1313 111.695 15.1766 110.813C14.9948 111.097 14.7478 111.334 14.456 111.504C14.352 111.583 14.2277 111.63 14.0977 111.64C13.9678 111.651 13.8377 111.624 13.7225 111.562C13.5222 111.427 13.4188 111.149 13.3994 110.716C13.4017 110.274 13.5126 109.84 13.7225 109.452C13.9333 109.059 14.253 108.735 14.6434 108.518C15.0796 108.25 15.4124 108.234 15.6483 108.454ZM15.183 110.176V110.134C15.1957 109.865 15.1459 109.596 15.0376 109.349C15.0228 109.308 14.9983 109.271 14.966 109.242C14.9338 109.213 14.8949 109.192 14.8528 109.182C14.8106 109.171 14.7666 109.171 14.7244 109.182C14.6823 109.192 14.6434 109.213 14.6111 109.242C14.4764 109.331 14.3733 109.46 14.3171 109.611C14.239 109.801 14.2015 110.006 14.2072 110.212C14.1914 110.373 14.2351 110.535 14.33 110.667C14.4075 110.764 14.5303 110.761 14.6919 110.667C14.8861 110.54 15.053 110.375 15.183 110.183" fill="#4FC87B"/>
<path opacity="0.8" d="M23.2277 103.672C23.609 103.452 23.903 103.384 24.113 103.468C24.3231 103.552 24.4361 103.791 24.4361 104.144C24.425 104.65 24.219 105.133 23.861 105.491C24.3392 105.391 24.5783 105.604 24.5783 106.137C24.5797 106.562 24.4536 106.977 24.2164 107.33C23.9788 107.698 23.6578 108.004 23.2794 108.225C22.449 108.703 21.9869 108.49 21.9385 107.579L22.6816 107.081C22.6816 107.594 22.8529 107.755 23.1954 107.566C23.3515 107.469 23.4779 107.332 23.5605 107.168C23.653 106.995 23.7007 106.802 23.6994 106.606C23.7085 106.534 23.7003 106.461 23.6756 106.393C23.6509 106.325 23.6103 106.264 23.5573 106.215C23.47 106.141 23.3279 106.157 23.1437 106.263L22.9692 106.37V105.624C23.1668 105.519 23.333 105.364 23.4506 105.174C23.5457 105.023 23.5971 104.849 23.5993 104.67C23.6061 104.616 23.5991 104.561 23.5787 104.51C23.5584 104.459 23.5254 104.414 23.483 104.379C23.4119 104.328 23.3085 104.344 23.1889 104.412C23.0495 104.497 22.9369 104.62 22.8643 104.766C22.7917 104.913 22.762 105.076 22.7786 105.239L22.0451 105.611C22.0564 105.212 22.1771 104.824 22.3941 104.489C22.5998 104.152 22.8863 103.871 23.2277 103.672Z" fill="#111111"/>
<path opacity="0.8" d="M27.4244 101.856C27.6474 102.124 27.7475 102.625 27.7475 103.355C27.7712 104.003 27.6612 104.649 27.4244 105.252C27.2359 105.732 26.8954 106.137 26.455 106.406C26.0188 106.658 25.6892 106.651 25.4631 106.406C25.2369 106.16 25.1173 105.646 25.1173 104.906C25.0984 104.264 25.2083 103.625 25.4404 103.026C25.6302 102.532 25.9824 102.119 26.4389 101.853C26.8686 101.581 27.2014 101.588 27.4244 101.856ZM26.8169 104.932C26.8649 104.579 26.8897 104.223 26.8913 103.866C26.905 103.491 26.8692 103.116 26.7846 102.751C26.7168 102.528 26.6004 102.46 26.4421 102.551C26.3462 102.623 26.2662 102.714 26.2073 102.819C26.1483 102.923 26.1117 103.039 26.0996 103.158C26.0225 103.561 25.989 103.97 25.9994 104.38C25.9842 104.753 26.02 105.127 26.1061 105.491C26.1739 105.711 26.2902 105.779 26.4292 105.688C26.547 105.6 26.6431 105.486 26.7103 105.355C26.7775 105.224 26.814 105.079 26.8169 104.932Z" fill="#111111"/>
<path d="M86.4897 7.07709C88.9583 5.65215 90.9616 6.79598 90.9713 9.63294L90.9972 19.4137L7.31003 67.7357L7.28418 57.955C7.28418 55.118 9.26811 51.6671 11.7335 50.2422L86.4897 7.07709Z" fill="#4FC87B"/>
<path d="M48.7618 31.9626L48.7876 40.4768L47.1397 41.4267V36.3344C47.1397 35.7851 47.1397 35.1647 47.1979 34.4765L47.1559 34.4991C47.0719 35.071 46.9943 35.4911 46.9265 35.7625L45.2075 42.5479L43.8439 43.3363L42.0603 38.6285C41.9594 38.2828 41.8806 37.931 41.8245 37.5752L41.7792 37.601C41.8245 38.4153 41.8503 39.1391 41.8503 39.7724V44.4802L40.3478 45.3461L40.3252 36.832L42.768 35.4232L44.2963 39.5947C44.4209 39.9401 44.5097 40.2974 44.5613 40.6609L44.5936 40.6415C44.6873 40.1181 44.781 39.6528 44.8844 39.2425L46.3836 33.3359L48.7618 31.9626Z" fill="#F4F6F9"/>
<path d="M62.6851 23.9299L60.2779 30.8091V33.8368L58.6106 34.8061V31.814L56.2422 27.6523L58.1615 26.544L59.3635 29.032C59.3861 29.0805 59.4443 29.2776 59.538 29.6265C59.6026 29.3034 59.6543 29.0481 59.7157 28.851L60.9209 24.951L62.6851 23.9299Z" fill="#F4F6F9"/>
<path d="M54.3257 28.7512L56.985 35.7433L55.1659 36.787L54.6327 35.1973L51.9993 36.7159L51.4855 38.913L49.6729 39.9567L52.345 29.8918L54.3257 28.7512ZM52.345 35.0454L54.2417 33.9501L53.4372 31.5494C53.3703 31.3241 53.328 31.0923 53.3112 30.8579L53.2692 30.8805C53.2503 31.1561 53.2081 31.4295 53.1431 31.698L52.345 35.0454Z" fill="#F4F6F9"/>
<path opacity="0.4" d="M102.223 133.741C109.28 133.741 115.001 130.458 115.001 126.407C115.001 122.357 109.28 119.074 102.223 119.074C95.1661 119.074 89.4453 122.357 89.4453 126.407C89.4453 130.458 95.1661 133.741 102.223 133.741Z" fill="#D6D8E5"/>
<path d="M112.027 78.3684C112.027 78.3684 111.667 83.7561 110.958 84.5281C110.249 85.3 107.841 85.8359 107.841 85.8359L105.989 88.8632C105.989 88.8632 107.681 79.2329 108.047 79.0032C108.413 78.7735 112.027 78.3684 112.027 78.3684Z" fill="#FFCEA9"/>
<path d="M108.45 72.3872C108.9 72.1828 109.409 72.1487 109.882 72.2915C110.355 72.4343 110.759 72.744 111.018 73.1624C111.698 74.282 112.408 78.1322 112.472 78.7893C112.472 78.7893 111.509 80.1003 110.081 79.8834L108.45 72.3872Z" fill="#EDEDED"/>
<path d="M102.962 126.146C101.954 126.422 100.877 126.293 99.9645 125.786C99.2423 125.808 95.3233 124.14 94.7873 125.54C94.3219 126.765 96.0198 127.901 96.9249 128.121C98.9053 128.596 100.372 129.579 101.168 129.745C101.759 129.869 102.526 129.952 102.998 129.487C103.566 128.931 103.514 126.877 102.962 126.146Z" fill="#111111"/>
<path d="M101.169 129.406C100.373 129.237 98.9218 128.258 96.9254 127.779C96.1679 127.598 94.8583 126.771 94.7235 125.785C94.5502 126.915 96.0812 127.917 96.9254 128.121C98.9057 128.596 100.373 129.579 101.169 129.745C101.759 129.869 102.526 129.952 102.998 129.486C103.121 129.352 103.21 129.192 103.258 129.017C102.964 129.239 102.622 129.389 102.259 129.456C101.897 129.524 101.523 129.507 101.169 129.406Z" fill="#6F6F6F"/>
<path d="M109.068 124.254C108.06 124.532 106.982 124.403 106.07 123.894C105.348 123.916 101.426 122.248 100.893 123.648C100.427 124.877 102.125 126.009 103.03 126.229C105.011 126.705 106.478 127.687 107.27 127.853C107.864 127.978 108.631 128.061 109.103 127.598C109.671 127.04 109.62 124.985 109.068 124.254Z" fill="#111111"/>
<path d="M107.271 127.515C106.479 127.346 105.025 126.366 103.031 125.888C102.271 125.706 100.961 124.88 100.829 123.894C100.653 125.023 102.187 126.025 103.031 126.229C105.012 126.704 106.479 127.687 107.271 127.853C107.865 127.977 108.632 128.06 109.104 127.598C109.227 127.463 109.316 127.301 109.364 127.126C109.069 127.347 108.727 127.497 108.364 127.565C108.001 127.632 107.627 127.615 107.271 127.515Z" fill="#6F6F6F"/>
<path d="M109.502 113.297C109.331 111.851 109.028 110.423 108.596 109.032C108.596 109.032 108.866 105.348 109.001 101.858C109.155 97.8962 110.538 94.4097 109.447 91.2485L97.3047 93.9312C97.3047 93.9312 97.8889 109.759 98.0525 111.673C98.1455 113.161 98.3299 114.642 98.6046 116.107C99.1663 119.173 99.7794 126.037 99.7794 126.037C101.063 126.787 102.989 126.171 102.989 126.171C102.989 126.171 102.989 117.578 102.915 115.37C102.813 112.672 102.729 112.879 102.729 112.879L103.137 106.158L103.4 102.815C103.4 102.815 103.743 105.268 103.965 107.459C104.157 109.373 104.607 111.099 105.14 114.656C105.589 117.74 106.054 124.031 106.054 124.031C107.354 124.781 109.104 124.264 109.104 124.264C109.104 124.264 109.851 115.973 109.502 113.297Z" fill="#4FC87B"/>
<path d="M107.796 72.4543C106.862 72.499 106.162 72.7382 106.046 72.4543C105.946 71.9741 105.874 71.4884 105.831 70.9998C105.94 70.7286 106.033 70.4383 106.033 70.4383C107.208 69.7206 107.581 68.4574 107.735 66.9837C108.001 64.4701 106.634 62.2691 104.101 62.0076C101.723 61.7588 99.9736 63.4207 99.505 65.7014C99.2546 66.8306 98.7539 68.9583 99.4311 70.8052C99.8067 71.8387 100.298 72.6617 100.782 72.8212C101.254 72.8107 101.725 72.7702 102.191 72.6999C102.191 72.6999 102.317 73.3985 102.403 73.8483C102.49 74.2981 102.455 74.5341 101.559 75.0828C100.664 75.6314 102.917 76.7638 104.39 76.6522C105.863 76.5405 107.523 75.6569 107.979 74.7095C108.495 73.6665 108.441 72.4224 107.796 72.4543Z" fill="#FFCEA9"/>
<path d="M106.442 72.591C106.702 73.229 106.044 74.0201 104.282 74.5719C102.52 75.1238 102.356 74.4124 102.356 74.4124C102.356 74.4124 99.7883 75.5799 98.9377 76.1637C97.8817 76.8973 97.4131 79.0186 97.2719 82.604C97.105 86.7508 97.0921 92.904 97.2301 93.9663C97.2301 93.9663 99.2041 95.9217 101.724 95.7143C104.243 95.507 108.496 93.2868 109.527 91.5675C109.498 87.9311 109.071 87.3409 109.665 85.2452C111.019 80.4604 111.735 78.4859 111.074 75.2992C110.531 72.674 109.77 72.3454 108.727 72.3709C107.962 72.4039 107.199 72.4774 106.442 72.591Z" fill="#F4F4F4"/>
<path d="M99.4567 97.1596L100.741 82.7191L98.0348 81.29L96.9756 82.1704L97.2966 95.1404V95.4945L97.3158 95.9506C97.3158 95.9506 97.2516 97.0448 99.3251 98.3494C99.3251 98.3494 99.3572 98.0081 99.3893 97.6859L99.4374 97.1468L99.4567 97.1596Z" fill="#FFCEA9"/>
<path d="M99.7817 75.2704C98.3855 75.2449 97.4932 75.9818 97.1529 78.1254C96.8127 80.269 96.6201 82.0203 96.6201 82.0203C97.2634 82.7303 98.1558 83.1686 99.1141 83.2452C100.809 83.4334 101.3 82.5785 101.3 82.5785C101.3 82.5785 101.476 80.3456 101.57 78.8431C101.663 77.3407 101.512 75.3055 99.7817 75.2704Z" fill="#EDEDED"/>
<path d="M99.5864 65.3789C99.5864 65.3789 97.4006 62.0742 102.138 61.4011C105.556 60.9163 107.752 63.0981 108.005 65.465C108.246 67.7266 106.847 70.0775 105.833 71.009C105.338 71.1844 104.276 71.2865 102.88 70.6549C102.824 70.0387 102.803 69.4201 102.815 68.8016C102.815 68.8016 104.481 65.3183 99.5864 65.3789Z" fill="#111111"/>
</svg>
